<?xml version="1.0" encoding="utf-8"?>
<!-- Generator: Adobe Illustrator 27.8.0, SVG Export Plug-In . SVG Version: 6.00 Build 0)  -->
<svg version="1.1" xmlns="http://www.w3.org/2000/svg" xmlns:xlink="http://www.w3.org/1999/xlink" x="0px" y="0px"
	 viewBox="0 0 192.66 311.82" style="enable-background:new 0 0 192.66 311.82;" xml:space="preserve">
<style type="text/css">
	.st0{fill:currentColor;}
</style>
<g id="Layer_1">
</g>
<g id="Layer_2">
	<rect x="103.89" y="153.5" class="st0" width="1.27" height="158.31"/>
	<rect x="81.9" y="143.14" class="st0" width="1.27" height="18.11"/>
	<rect x="113.37" y="101.07" class="st0" width="1.27" height="95.07"/>
	<rect x="107.96" y="106.52" class="st0" width="1.27" height="80.03"/>
	<rect x="140.55" y="151.11" class="st0" width="1.27" height="14.99"/>
	<rect x="124.25" y="142.55" class="st0" width="1.26" height="31.9"/>
	<rect x="135.14" y="170.97" class="st0" width="1.26" height="140.85"/>
	<rect x="137.85" y="175.58" class="st0" width="1.27" height="136.24"/>
	<rect x="132.64" y="170.97" class="st0" width="1.27" height="72.73"/>
	<rect x="107.96" y="201.01" class="st0" width="1.27" height="20.21"/>
	<rect x="61.19" y="138.67" class="st0" width="29.13" height="1.27"/>
	
		<rect x="96.66" y="136.04" transform="matrix(0.7071 -0.7071 0.7071 0.7071 -75.1163 111.7083)" class="st0" width="1.27" height="20.98"/>
	
		<rect x="87.28" y="181.43" transform="matrix(0.7069 -0.7073 0.7073 0.7069 -111.129 118.9192)" class="st0" width="1.27" height="24.23"/>
	
		<rect x="132.72" y="192.36" transform="matrix(0.7067 -0.7075 0.7075 0.7067 -105.0041 154.0908)" class="st0" width="1.27" height="22.66"/>
	
		<rect x="56.62" y="171.04" transform="matrix(0.7073 -0.707 0.707 0.7073 -113.8877 94.5737)" class="st0" width="1.27" height="27.53"/>
	
		<rect x="100.73" y="132.36" transform="matrix(0.7071 -0.7071 0.7071 0.7071 -71.321 113.5081)" class="st0" width="1.27" height="20.98"/>
	
		<rect x="85.93" y="148.37" transform="matrix(0.7073 -0.7069 0.7069 0.7073 -83.7408 106.3584)" class="st0" width="1.27" height="11.87"/>
	
		<rect x="73.58" y="163.58" transform="matrix(0.7073 -0.7069 0.7069 0.7073 -98.1126 102.0774)" class="st0" width="1.27" height="11.87"/>
	
		<rect x="75.1" y="186.65" transform="matrix(0.7073 -0.7069 0.7069 0.7073 -113.9692 109.8952)" class="st0" width="1.27" height="11.87"/>
	
		<rect x="93.65" y="55.53" transform="matrix(0.7071 -0.7071 0.7071 0.7071 -19.0689 86.0083)" class="st0" width="1.27" height="20.98"/>
	<polygon class="st0" points="82.99,66.31 75.12,58.48 76.02,57.58 83.88,65.42 	"/>
	
		<rect x="86.13" y="158.98" transform="matrix(0.7074 -0.7068 0.7068 0.7074 -91.3982 109.677)" class="st0" width="1.26" height="12.49"/>
	<rect x="91.48" y="12.84" class="st0" width="1.27" height="18.11"/>
	
		<rect x="95.71" y="28.68" transform="matrix(0.7074 -0.7068 0.7068 0.7074 3.5068 78.316)" class="st0" width="1.27" height="12.49"/>
	<rect x="87.89" y="17.37" class="st0" width="1.26" height="18.11"/>
	<rect x="77.31" y="19.89" class="st0" width="1.26" height="16.21"/>
	
		<rect x="93.91" y="32.46" transform="matrix(0.7073 -0.7069 0.7069 0.7073 -1.4881 78.9018)" class="st0" width="1.27" height="17.57"/>
	
		<rect x="100.43" y="94.6" transform="matrix(0.7064 -0.7078 0.7078 0.7064 -40.0907 100.4636)" class="st0" width="1.27" height="7.92"/>
	
		<rect x="85.79" y="90.51" transform="matrix(0.7064 -0.7078 0.7078 0.7064 -41.4962 88.9082)" class="st0" width="1.26" height="7.92"/>
	
		<rect x="100.15" y="115.89" transform="matrix(0.7065 -0.7078 0.7078 0.7065 -55.2396 106.5111)" class="st0" width="1.27" height="7.92"/>
	
		<rect x="64.44" y="144.65" transform="matrix(0.7064 -0.7078 0.7078 0.7064 -86.0782 89.6831)" class="st0" width="1.27" height="7.92"/>
	
		<rect x="67.69" y="167.11" transform="matrix(0.7064 -0.7078 0.7078 0.7064 -101.0281 98.587)" class="st0" width="1.27" height="7.92"/>
	
		<rect x="94.56" y="100.44" transform="matrix(0.7064 -0.7078 0.7078 0.7064 -45.946 98.0307)" class="st0" width="1.27" height="7.92"/>
	<polygon class="st0" points="124.77,88.35 113.58,77.26 114.47,76.37 125.66,87.45 	"/>
	<polygon class="st0" points="125.07,180.78 119.62,175.35 120.51,174.45 125.97,179.88 	"/>
	<polygon class="st0" points="104.07,191.43 98.61,186 99.51,185.1 104.96,190.54 	"/>
	<polygon class="st0" points="94.51,264.42 89.06,258.98 89.95,258.09 95.41,263.52 	"/>
	
		<rect x="146.87" y="105.18" transform="matrix(0.7072 -0.7071 0.7071 0.7072 -34.4433 136.4448)" class="st0" width="1.27" height="9.25"/>
	
		<rect x="152.05" y="105.18" transform="matrix(0.7072 -0.7071 0.7071 0.7072 -32.9262 140.1069)" class="st0" width="1.27" height="9.25"/>
	
		<rect x="149.23" y="90.71" transform="matrix(0.7072 -0.7071 0.7071 0.7072 -23.5247 133.8835)" class="st0" width="1.27" height="9.25"/>
	<polygon class="st0" points="119.99,96.86 110.75,87.58 111.64,86.68 120.89,95.97 	"/>
	
		<rect x="118.7" y="58.12" transform="matrix(0.7071 -0.7071 0.7071 0.7071 -9.4192 102.7553)" class="st0" width="1.27" height="9.25"/>
	
		<rect x="77.68" y="70.39" transform="matrix(0.7072 -0.707 0.707 0.7072 -31.2472 77.8013)" class="st0" width="1.26" height="12.48"/>
	
		<rect x="130.37" y="46.22" transform="matrix(0.7071 -0.7071 0.7071 0.7071 2.4127 107.5244)" class="st0" width="1.27" height="9.25"/>
	<polygon class="st0" points="160.69,91.86 150.63,81.75 151.53,80.86 161.58,90.96 	"/>
	<polygon class="st0" points="185.69,111.59 175.63,101.48 176.53,100.58 186.58,110.69 	"/>
	
		<rect x="129.58" y="71.37" transform="matrix(0.7077 -0.7065 0.7065 0.7077 -16.8499 114.7094)" class="st0" width="1.26" height="12.69"/>
	
		<rect x="127.11" y="50.74" transform="matrix(0.7077 -0.7065 0.7065 0.7077 -2.9911 106.9352)" class="st0" width="1.27" height="12.69"/>
	
		<rect x="153.82" y="199.83" transform="matrix(0.7072 -0.7071 0.7071 0.7072 -99.9898 169.3528)" class="st0" width="1.27" height="11.12"/>
	
		<rect x="111.71" y="219.14" transform="matrix(0.7071 -0.7071 0.7071 0.7071 -125.9842 145.2591)" class="st0" width="1.27" height="11.12"/>
	
		<rect x="107.22" y="197.94" transform="matrix(0.7075 -0.7067 0.7067 0.7075 -107.7755 136.7275)" class="st0" width="8.16" height="1.27"/>
	<rect x="111.3" y="202.55" class="st0" width="1.27" height="15.61"/>
	<rect x="116.7" y="186.02" class="st0" width="1.27" height="11.66"/>
	
		<rect x="110.55" y="199.48" transform="matrix(0.7075 -0.7068 0.7068 0.7075 -107.8948 139.5558)" class="st0" width="8.16" height="1.27"/>
	
		<rect x="134.4" y="167.91" transform="matrix(0.7076 -0.7066 0.7066 0.7076 -78.6016 147.1176)" class="st0" width="8.16" height="1.27"/>
	<rect x="143.25" y="155.72" class="st0" width="1.27" height="14.99"/>
	
		<rect x="137.1" y="172.52" transform="matrix(0.7075 -0.7067 0.7067 0.7075 -81.0738 150.4115)" class="st0" width="8.16" height="1.27"/>
	<rect x="140.55" y="179.29" class="st0" width="1.26" height="104.14"/>
	
		<rect x="139.8" y="176.23" transform="matrix(0.7075 -0.7067 0.7067 0.7075 -82.9048 153.4076)" class="st0" width="8.16" height="1.27"/>
	
		<rect x="110.91" y="214.2" transform="matrix(0.7076 -0.7066 0.7066 0.7076 -118.1807 144.0722)" class="st0" width="8.16" height="1.27"/>
	
		<rect x="109.29" y="258.29" transform="matrix(0.7076 -0.7066 0.7066 0.7076 -149.8066 155.8083)" class="st0" width="8.16" height="1.27"/>
	
		<rect x="126.49" y="245.5" transform="matrix(0.7076 -0.7066 0.7066 0.7076 -135.7456 164.2377)" class="st0" width="8.16" height="1.27"/>
	
		<rect x="147.1" y="268.16" transform="matrix(0.7075 -0.7067 0.7067 0.7075 -145.7396 185.4537)" class="st0" width="8.16" height="1.27"/>
	<rect x="127.23" y="150.21" class="st0" width="1.27" height="15.9"/>
	
		<rect x="129.94" y="164.46" transform="matrix(0.7066 -0.7076 0.7076 0.7066 -80.9544 141.8527)" class="st0" width="1.27" height="8.16"/>
	
		<rect x="154.17" y="171.35" transform="matrix(0.7076 -0.7066 0.7066 0.7076 -75.2553 162.1116)" class="st0" width="8.16" height="1.26"/>
	
		<rect x="164.11" y="175.77" transform="matrix(0.7077 -0.7065 0.7065 0.7077 -75.4666 170.3899)" class="st0" width="8.16" height="1.26"/>
	<rect x="133.88" y="81.75" class="st0" width="1.27" height="51.78"/>
	<polygon class="st0" points="125.15,143.45 135.14,133.54 134.25,132.64 124.25,142.55 	"/>
	<polygon class="st0" points="55.1,154.25 65.09,144.34 64.2,143.44 54.2,153.35 	"/>
	<polygon class="st0" points="27.51,151.27 37.51,141.36 36.61,140.47 26.62,150.37 	"/>
	<polygon class="st0" points="44.23,142.22 54.22,132.31 53.33,131.42 43.33,141.33 	"/>
	<polygon class="st0" points="17.27,131.82 27.27,121.91 26.37,121.02 16.38,130.93 	"/>
	<polygon class="st0" points="4.03,123.79 14.03,113.88 13.14,112.99 3.14,122.89 	"/>
	<polygon class="st0" points="66.49,194.96 76.49,185.05 75.6,184.15 65.6,194.06 	"/>
	<rect x="130.11" y="89.62" class="st0" width="1.27" height="39.2"/>
	<polygon class="st0" points="124.03,136.04 131.38,128.82 130.48,127.92 123.13,135.15 	"/>
	<polygon class="st0" points="185.73,111.59 189.85,107.51 188.96,106.61 184.84,110.69 	"/>
	<polygon class="st0" points="90.65,153.98 98,146.75 97.1,145.86 89.75,153.08 	"/>
	<polygon class="st0" points="128.13,151.11 138.13,141.2 137.23,140.31 127.23,150.22 	"/>
	<polygon class="st0" points="65.97,169.61 75.96,159.7 75.07,158.81 65.07,168.72 	"/>
	<polygon class="st0" points="89.32,168.62 99.32,158.71 98.42,157.82 88.43,167.73 	"/>
	<polygon class="st0" points="75.11,171.16 84.16,162.15 83.26,161.25 74.21,170.27 	"/>
	<polygon class="st0" points="55.57,182.9 68.1,170.41 67.2,169.52 54.67,182 	"/>
	<polygon class="st0" points="150.99,133.66 160.99,123.75 160.09,122.86 150.1,132.76 	"/>
	<rect x="113.58" y="45.36" class="st0" width="1.26" height="31.9"/>
	<rect x="132.05" y="6.82" class="st0" width="1.26" height="31.95"/>
	<rect x="100" y="30.32" class="st0" width="1.27" height="31.9"/>
	<rect x="91.86" y="80.38" class="st0" width="1.27" height="6.42"/>
	<polygon class="st0" points="114.47,46.26 119.92,40.85 119.02,39.96 113.58,45.36 	"/>
	<polygon class="st0" points="156.48,74.71 145.3,63.62 146.19,62.73 157.38,73.81 	"/>
	<polygon class="st0" points="132.48,44.2 121.29,33.12 122.18,32.22 133.37,43.31 	"/>
	<rect x="145.3" y="31.72" class="st0" width="1.27" height="31.9"/>
	<rect x="159.45" y="69.88" class="st0" width="1.27" height="20.21"/>
	<rect x="156.75" y="94.06" class="st0" width="1.27" height="15.13"/>
	<polygon class="st0" points="146.19,32.62 156.19,22.71 155.29,21.81 145.3,31.72 	"/>
	<polygon class="st0" points="123.35,16.7 133.35,6.79 132.45,5.9 122.46,15.81 	"/>
	<rect x="154.91" y="142.51" class="st0" width="1.26" height="31.9"/>
	<polygon class="st0" points="155.81,143.4 165.8,133.49 164.91,132.6 154.91,142.51 	"/>
	<rect x="177.64" y="158.62" class="st0" width="1.26" height="37.82"/>
	<polygon class="st0" points="178.01,159.51 168.01,149.6 168.91,148.71 178.9,158.61 	"/>
	
		<rect x="53.59" y="121.58" transform="matrix(0.7071 -0.7071 0.7071 0.7071 -77.5096 77.0239)" class="st0" width="1.27" height="20.98"/>
	
		<rect x="31.19" y="116.08" transform="matrix(0.7071 -0.7071 0.7071 0.7071 -80.1765 59.5752)" class="st0" width="1.27" height="20.98"/>
	
		<rect x="19.48" y="110.36" transform="matrix(0.7071 -0.7071 0.7071 0.7071 -79.565 49.6208)" class="st0" width="1.27" height="20.98"/>
	<rect x="80.1" y="106.52" class="st0" width="29.13" height="1.27"/>
	<rect x="77.06" y="91.2" class="st0" width="21.38" height="1.26"/>
	<rect x="150.07" y="121.87" class="st0" width="1.26" height="80.03"/>
	<rect x="143.33" y="123.9" class="st0" width="1.27" height="5.04"/>
	
		<rect x="85.85" y="201.59" transform="matrix(0.7073 -0.707 0.707 0.7073 -114.6474 127.574)" class="st0" width="21.74" height="1.27"/>
	<rect x="110.03" y="222.83" class="st0" width="1.27" height="44.49"/>
	<rect x="147.85" y="271.23" class="st0" width="1.26" height="40.59"/>
	<rect x="145.63" y="287.98" class="st0" width="1.27" height="23.84"/>
	<rect x="115.12" y="271.86" class="st0" width="1.27" height="39.96"/>
	<rect x="94.14" y="204.1" class="st0" width="1.27" height="87.43"/>
	<rect x="127.23" y="248.57" class="st0" width="1.27" height="63.25"/>
	
		<rect x="142.67" y="129.58" transform="matrix(0.7071 -0.7071 0.7071 0.7071 -54.0349 141.0875)" class="st0" width="1.27" height="12.39"/>
	
		<rect x="161.97" y="155.56" transform="matrix(0.7071 -0.7071 0.7071 0.7071 -66.7542 162.3393)" class="st0" width="1.27" height="12.39"/>
	
		<rect x="160.79" y="188.75" transform="matrix(0.7071 -0.7071 0.7071 0.7071 -90.5662 171.2284)" class="st0" width="1.27" height="12.39"/>
	
		<rect x="167.17" y="107.82" transform="matrix(0.7071 -0.7071 0.7071 0.7071 -31.4724 152.052)" class="st0" width="1.27" height="12.39"/>
	<polygon class="st0" points="177.82,191.88 164.86,178.84 165.75,177.94 178.72,190.98 	"/>
	
		<rect x="164.28" y="135.74" transform="matrix(0.7071 -0.7071 0.7071 0.7071 -52.0581 158.1697)" class="st0" width="1.27" height="12.39"/>
	<rect x="146.87" y="139.71" class="st0" width="1.26" height="24.64"/>
	<rect x="168.84" y="145.49" class="st0" width="13.01" height="1.27"/>
	<polygon class="st0" points="150.97,197.25 167.87,180.44 166.98,179.54 150.07,196.35 	"/>
	<polygon class="st0" points="103.92,134.62 120.83,117.81 119.94,116.91 103.03,133.72 	"/>
	<polygon class="st0" points="116.44,92.42 133.35,75.62 132.45,74.72 115.54,91.53 	"/>
	<polygon class="st0" points="94.97,271.1 110.92,255.25 110.08,254.4 94.13,270.26 	"/>
	<polygon class="st0" points="111.21,248.14 138.9,220.74 138.06,219.9 110.37,247.29 	"/>
	<polygon class="st0" points="162.88,212.73 177.76,198.12 176.87,197.22 161.98,211.84 	"/>
	<polygon class="st0" points="174.29,215.48 189.18,200.87 188.29,199.97 173.4,214.59 	"/>
	<polygon class="st0" points="150.97,122.76 171.16,102.52 170.27,101.62 150.07,121.87 	"/>
	<polygon class="st0" points="186.5,83.23 191.28,78.37 190.39,77.47 185.6,82.34 	"/>
	<polygon class="st0" points="179.85,101.26 184.64,96.39 183.74,95.5 178.96,100.36 	"/>
	<polygon class="st0" points="174.95,118.59 179.74,113.73 178.84,112.83 174.06,117.7 	"/>
	
		<rect x="141.26" y="117.66" transform="matrix(0.7072 -0.7071 0.7071 0.7072 -39.7524 140.6027)" class="st0" width="17.21" height="1.27"/>
	<rect x="54.04" y="143.14" class="st0" width="29.13" height="1.27"/>
	<rect x="171.32" y="84.01" class="st0" width="15.55" height="1.27"/>
	<rect x="97.81" y="85.83" class="st0" width="1.26" height="10.38"/>
	<rect x="82.8" y="85.83" class="st0" width="16.28" height="1.27"/>
	
		<rect x="36.58" y="150.37" transform="matrix(0.7071 -0.7071 0.7071 0.7071 -92.9918 77.5158)" class="st0" width="20.98" height="1.27"/>
	
		<rect x="44.45" y="167.91" transform="matrix(0.7071 -0.7071 0.7071 0.7071 -103.0876 88.2134)" class="st0" width="20.98" height="1.26"/>
	<rect x="97.48" y="113.22" class="st0" width="1.27" height="18.11"/>
	
		<rect x="79.61" y="110.75" transform="matrix(0.7068 -0.7074 0.7074 0.7068 -53.6202 93.3959)" class="st0" width="12.49" height="1.27"/>
	
		<rect x="80.32" y="125.79" transform="matrix(0.7068 -0.7074 0.7074 0.7068 -64.0494 98.3064)" class="st0" width="12.49" height="1.27"/>
	
		<rect x="36.54" y="128.93" transform="matrix(0.7068 -0.7074 0.7074 0.7068 -79.1131 68.2507)" class="st0" width="12.49" height="1.26"/>
	
		<rect x="73.74" y="53.87" transform="matrix(0.7069 -0.7074 0.7074 0.7069 -15.1065 72.5547)" class="st0" width="12.49" height="1.27"/>
	
		<rect x="82.13" y="67.96" transform="matrix(0.7068 -0.7074 0.7074 0.7068 -22.6157 82.6282)" class="st0" width="12.49" height="1.27"/>
	
		<rect x="101.43" y="90.92" transform="matrix(0.7068 -0.7074 0.7074 0.7068 -33.1936 103.0052)" class="st0" width="12.49" height="1.27"/>
	
		<rect x="161.52" y="124.62" transform="matrix(0.7069 -0.7073 0.7073 0.7069 -39.417 155.3792)" class="st0" width="12.49" height="1.27"/>
	
		<rect x="72.07" y="68.07" transform="matrix(0.7068 -0.7074 0.7074 0.7068 -25.6424 75.5397)" class="st0" width="12.49" height="1.27"/>
	
		<rect x="86.99" y="47.63" transform="matrix(0.7068 -0.7074 0.7074 0.7068 -6.8046 80.1009)" class="st0" width="12.49" height="1.27"/>
	
		<rect x="180.58" y="148.17" transform="matrix(0.7073 -0.7069 0.7069 0.7073 -56.1167 173.2823)" class="st0" width="1.26" height="12.49"/>
	<polygon class="st0" points="156.03,159.86 160.82,155 159.92,154.1 155.13,158.97 	"/>
	<polygon class="st0" points="128.42,163.91 133.2,159.04 132.31,158.15 127.52,163.01 	"/>
	
		<rect x="121.07" y="22.32" transform="matrix(0.7069 -0.7073 0.7073 0.7069 20.1686 94.5748)" class="st0" width="6.24" height="1.27"/>
	
		<rect x="91.01" y="20.72" transform="matrix(0.7068 -0.7074 0.7074 0.7068 12.4894 72.85)" class="st0" width="6.24" height="1.27"/>
	
		<rect x="110.36" y="51.59" transform="matrix(0.707 -0.7073 0.7073 0.707 -0.7225 102.7037)" class="st0" width="26.44" height="1.27"/>
	
		<rect x="158.5" y="55.13" transform="matrix(0.7078 -0.7065 0.7065 0.7078 3.0707 130.3857)" class="st0" width="1.27" height="12.69"/>
	
		<rect x="181.12" y="69.36" transform="matrix(0.7078 -0.7065 0.7065 0.7078 -0.368 150.5204)" class="st0" width="1.27" height="12.69"/>
	
		<rect x="145.56" y="21.3" transform="matrix(0.7078 -0.7064 0.7064 0.7078 24.4974 110.6484)" class="st0" width="0.88" height="8.83"/>
	
		<rect x="148.29" y="18.54" transform="matrix(0.7078 -0.7064 0.7064 0.7078 27.2441 111.7703)" class="st0" width="0.88" height="8.83"/>
	
		<rect x="124.28" y="17.58" transform="matrix(0.7075 -0.7067 0.7067 0.7075 16.5377 96.5614)" class="st0" width="1.27" height="21.44"/>
	
		<rect x="118.68" y="5.41" transform="matrix(0.7078 -0.7065 0.7065 0.7078 26.5599 87.7285)" class="st0" width="1.26" height="12.69"/>
	
		<rect x="83.59" y="6.98" transform="matrix(0.7077 -0.7065 0.7065 0.7077 15.2038 63.3989)" class="st0" width="1.27" height="12.69"/>
	<rect x="154.2" y="37.17" class="st0" width="1.27" height="20.24"/>
	<rect x="158.82" y="41.7" class="st0" width="1.27" height="20.24"/>
	<rect x="185.6" y="60.91" class="st0" width="1.27" height="23.74"/>
	<rect x="171.32" y="84.03" class="st0" width="1.27" height="8.18"/>
	<rect x="173.38" y="76.26" class="st0" width="1.27" height="8.18"/>
	<rect x="175.53" y="59.74" class="st0" width="1.27" height="8.18"/>
	
		<rect x="140.73" y="98.35" transform="matrix(0.7074 -0.7068 0.7068 0.7074 -25.2903 136.8694)" class="st0" width="23.9" height="1.26"/>
	
		<rect x="154.28" y="69.44" transform="matrix(0.7077 -0.7066 0.7066 0.7077 -2.6719 133.6815)" class="st0" width="11.86" height="1.27"/>
	<rect x="69.62" y="130.06" class="st0" width="29.13" height="1.26"/>
	<rect x="119.62" y="95.96" class="st0" width="1.27" height="79.39"/>
	<rect x="187.91" y="121.51" class="st0" width="1.27" height="79.39"/>
	<rect x="124.4" y="87.45" class="st0" width="1.27" height="38.32"/>
	<rect x="124.7" y="179.88" class="st0" width="1.26" height="41.96"/>
	<polygon class="st0" points="121.95,182.94 116.5,177.51 117.39,176.62 122.85,182.05 	"/>
	<rect x="121.58" y="182.05" class="st0" width="1.27" height="129.77"/>
	<rect x="161.5" y="213.29" class="st0" width="1.27" height="75.65"/>
	<polygon class="st0" points="153.62,214.18 148.16,208.75 149.06,207.86 154.51,213.29 	"/>
	<polygon class="st0" points="146,288.87 140.55,283.44 141.44,282.55 146.9,287.98 	"/>
	<polygon class="st0" points="115.49,272.75 110.03,267.32 110.93,266.43 116.38,271.86 	"/>
	<rect x="153.25" y="213.29" class="st0" width="1.26" height="53.07"/>
	<rect x="148.16" y="208.75" class="st0" width="1.27" height="18.46"/>
	<rect x="145.95" y="174.41" class="st0" width="1.26" height="20.24"/>
	<rect x="82.28" y="80.22" class="st0" width="23.13" height="1.27"/>
	<rect x="18.51" y="150.08" class="st0" width="29.13" height="1.27"/>
	<rect x="162.97" y="94.47" class="st0" width="16.91" height="10.49"/>
	<rect x="171.43" y="128.16" class="st0" width="10.33" height="10.49"/>
	<path class="st0" d="M84.37,175.97v8.57h8.44v-8.57H84.37z M90.61,182.3h-4.03v-4.09h4.03V182.3z"/>
	<rect x="44.62" y="160.16" class="st0" width="6.04" height="6.13"/>
	<rect x="131.53" y="66.09" class="st0" width="4.7" height="10.49"/>
	<rect x="175.2" y="90.61" class="st0" width="4.69" height="2.49"/>
	<rect x="169.57" y="90.61" class="st0" width="4.69" height="2.49"/>
	<path class="st0" d="M81.51,183.08c0,2.22-1.8,4.02-4.02,4.02c-2.22,0-4.02-1.8-4.02-4.02c0-2.22,1.8-4.02,4.02-4.02
		C79.71,179.07,81.51,180.86,81.51,183.08z"/>
	<rect x="160.87" y="211.5" class="st0" width="2.38" height="2.38"/>
	<rect x="16.16" y="148.8" class="st0" width="3.83" height="3.83"/>
	<rect x="26.62" y="127.57" class="st0" width="3.83" height="3.83"/>
	<rect x="26" y="139.34" class="st0" width="2.53" height="2.53"/>
	<g>
		<rect x="119.47" y="77.88" class="st0" width="5.86" height="1.28"/>
		<rect x="121.76" y="75.59" class="st0" width="1.28" height="5.86"/>
	</g>
	<g>
		<rect x="185.21" y="53.65" class="st0" width="5.86" height="1.28"/>
		<rect x="187.5" y="51.36" class="st0" width="1.28" height="5.86"/>
	</g>
	<g>
		<rect x="96.14" y="165.94" class="st0" width="5.86" height="1.29"/>
		<rect x="98.43" y="163.65" class="st0" width="1.28" height="5.86"/>
	</g>
	<g>
		<rect x="156.32" y="178.86" class="st0" width="3.86" height="0.85"/>
		<rect x="157.82" y="177.36" class="st0" width="0.85" height="3.86"/>
	</g>
	<g>
		<polygon class="st0" points="155.73,220.27 158.12,217.98 160.5,220.27 		"/>
		<rect x="157.32" y="220" class="st0" width="1.59" height="6.27"/>
	</g>
	<g>
		<polygon class="st0" points="110.26,133.48 111.34,134.51 112.42,133.48 		"/>
		<rect x="110.98" y="130.77" class="st0" width="0.72" height="2.83"/>
	</g>
	<g>
		<polygon class="st0" points="148.79,74.73 149.86,75.76 150.94,74.73 		"/>
		<rect x="149.51" y="72.02" class="st0" width="0.72" height="2.83"/>
	</g>
	<g>
		<polygon class="st0" points="177.02,80.74 178.1,81.77 179.17,80.74 		"/>
		<rect x="177.74" y="78.02" class="st0" width="0.72" height="2.83"/>
	</g>
	<g>
		<polygon class="st0" points="76.87,100.51 78.83,102.38 80.78,100.51 		"/>
		<rect x="78.18" y="95.59" class="st0" width="1.3" height="5.13"/>
	</g>
	<g>
		<polygon class="st0" points="145.11,247.96 147.5,245.68 149.88,247.96 		"/>
		<rect x="146.7" y="247.7" class="st0" width="1.59" height="6.27"/>
	</g>
	
		<rect x="163.56" y="185.84" transform="matrix(0.7071 -0.7071 0.7071 0.7071 -84.9312 173.5379)" class="st0" width="6.9" height="6.9"/>
	
		<rect x="158.83" y="141.06" transform="matrix(0.7071 -0.7071 0.7071 0.7071 -53.9674 155.4124)" class="st0" width="3.58" height="3.58"/>
	
		<rect x="52.35" y="172.86" transform="matrix(0.7071 -0.7071 0.7071 0.7071 -107.9733 90.2427)" class="st0" width="5.18" height="5.18"/>
	
		<rect x="35.95" y="123.78" transform="matrix(0.7071 -0.7071 0.7071 0.7071 -78.2339 64.6508)" class="st0" width="5.94" height="5.94"/>
	
		<rect x="11.92" y="122.51" transform="matrix(0.7071 -0.7071 0.7071 0.7071 -83.6836 45.6319)" class="st0" width="2.64" height="2.64"/>
	<path class="st0" d="M13.24,117.84l-5.99,5.99l5.99,5.99l5.99-5.99L13.24,117.84z M13.24,127.32l-3.5-3.5l3.5-3.5l3.5,3.5
		L13.24,127.32z"/>
	
		<rect x="186.37" y="88.29" transform="matrix(0.7071 -0.7071 0.7071 0.7071 -8.9171 160.2368)" class="st0" width="5.18" height="5.18"/>
	
		<rect x="178.86" y="50.55" transform="matrix(0.7073 -0.7069 0.7069 0.7073 15.7065 143.4468)" class="st0" width="4.42" height="4.42"/>
	
		<rect x="154.78" y="26.39" transform="matrix(0.7072 -0.707 0.707 0.7072 25.1395 120.8197)" class="st0" width="7.33" height="7.33"/>
	<path class="st0" d="M123.58,0l-4.91,4.91l4.91,4.91l4.91-4.91L123.58,0z M120.4,4.91l3.18-3.18l3.18,3.18l-3.18,3.18L120.4,4.91z"
		/>
	
		<rect x="153.81" y="63.83" transform="matrix(0.7073 -0.7069 0.7069 0.7073 -1.175 130.0041)" class="st0" width="5.17" height="5.17"/>
	
		<rect x="82.26" y="45.32" transform="matrix(0.707 -0.7072 0.7072 0.707 -9.0253 74.0343)" class="st0" width="5.18" height="5.18"/>
	<rect x="126.88" y="96.41" class="st0" width="1.93" height="15.35"/>
	<polygon class="st0" points="81.39,95.59 81.39,105.1 90.94,105.1 	"/>
	<rect x="68.32" y="145.65" class="st0" width="12.4" height="3.2"/>
</g>
<g id="Layer_3">
	<path class="st0" d="M81.8,8.84c0,1.07-0.87,1.93-1.93,1.93c-1.07,0-1.93-0.87-1.93-1.93c0-1.07,0.87-1.93,1.93-1.93
		C80.94,6.91,81.8,7.78,81.8,8.84z"/>
	<path class="st0" d="M87.55,71.81c0,1.4-1.13,2.53-2.53,2.53c-1.39,0-2.53-1.13-2.53-2.53c0-1.4,1.13-2.53,2.53-2.53
		C86.42,69.29,87.55,70.42,87.55,71.81z"/>
	<path class="st0" d="M84.44,64.64c0,1.07-0.87,1.93-1.93,1.93c-1.07,0-1.93-0.87-1.93-1.93c0-1.07,0.87-1.93,1.93-1.93
		C83.58,62.71,84.44,63.57,84.44,64.64z"/>
	<circle class="st0" cx="77.94" cy="36.1" r="1.93"/>
	<path class="st0" d="M105.79,95.31c0,1.07-0.87,1.93-1.93,1.93c-1.07,0-1.93-0.86-1.93-1.93c0-1.07,0.87-1.93,1.93-1.93
		C104.92,93.38,105.79,94.25,105.79,95.31z"/>
	<path class="st0" d="M165.88,129.01c0,1.07-0.87,1.93-1.93,1.93c-1.07,0-1.93-0.87-1.93-1.93c0-1.07,0.87-1.93,1.93-1.93
		C165.01,127.08,165.88,127.95,165.88,129.01z"/>
	<path class="st0" d="M155.57,136.11c0,0.46-0.38,0.84-0.84,0.84c-0.46,0-0.84-0.38-0.84-0.84c0-0.46,0.38-0.84,0.84-0.84
		C155.2,135.27,155.57,135.65,155.57,136.11z"/>
	<path class="st0" d="M159.65,132.86c0,0.46-0.38,0.84-0.84,0.84c-0.46,0-0.84-0.38-0.84-0.84c0-0.46,0.38-0.84,0.84-0.84
		C159.27,132.02,159.65,132.4,159.65,132.86z"/>
	<path class="st0" d="M121.55,40.49c0,1.07-0.86,1.93-1.93,1.93c-1.07,0-1.93-0.87-1.93-1.93c0-1.07,0.87-1.93,1.93-1.93
		C120.69,38.56,121.55,39.43,121.55,40.49z"/>
	<path class="st0" d="M134.08,61.48c0,1.07-0.87,1.93-1.93,1.93c-1.07,0-1.93-0.87-1.93-1.93c0-1.07,0.87-1.93,1.93-1.93
		C133.21,59.55,134.08,60.41,134.08,61.48z"/>
	<path class="st0" d="M152.49,80.86c0,1.07-0.87,1.93-1.93,1.93c-1.07,0-1.93-0.86-1.93-1.93c0-1.07,0.87-1.93,1.93-1.93
		C151.63,78.92,152.49,79.79,152.49,80.86z"/>
	<path class="st0" d="M172.36,54.99c0,0.77-0.63,1.4-1.4,1.4c-0.77,0-1.4-0.63-1.4-1.4c0-0.77,0.63-1.4,1.4-1.4
		C171.73,53.59,172.36,54.21,172.36,54.99z"/>
	<path class="st0" d="M175.26,51.36c0,0.77-0.63,1.4-1.4,1.4c-0.77,0-1.4-0.63-1.4-1.4c0-0.77,0.63-1.4,1.4-1.4
		C174.63,49.96,175.26,50.59,175.26,51.36z"/>
	<path class="st0" d="M178.16,47.73c0,0.77-0.63,1.4-1.4,1.4c-0.77,0-1.4-0.63-1.4-1.4c0-0.77,0.63-1.4,1.4-1.4
		C177.53,46.33,178.16,46.96,178.16,47.73z"/>
	<path class="st0" d="M119.24,73.57c0,0.69-0.56,1.25-1.24,1.25c-0.69,0-1.25-0.56-1.25-1.25c0-0.69,0.56-1.25,1.25-1.25
		C118.68,72.32,119.24,72.88,119.24,73.57z"/>
	<path class="st0" d="M159.31,108.97c0,1.07-0.87,1.93-1.93,1.93c-1.07,0-1.93-0.87-1.93-1.93c0-1.07,0.87-1.93,1.93-1.93
		C158.45,107.04,159.31,107.9,159.31,108.97z"/>
	<path class="st0" d="M152.49,112.83c0,1.07-0.87,1.93-1.93,1.93c-1.07,0-1.93-0.87-1.93-1.93c0-1.07,0.87-1.93,1.93-1.93
		C151.63,110.9,152.49,111.77,152.49,112.83z"/>
	<path class="st0" d="M149.43,164.35c0,1.07-0.87,1.93-1.93,1.93c-1.07,0-1.93-0.86-1.93-1.93c0-1.07,0.86-1.93,1.93-1.93
		C148.57,162.42,149.43,163.28,149.43,164.35z"/>
	<path class="st0" d="M145.81,155.59c0,1.07-0.87,1.93-1.93,1.93c-1.07,0-1.93-0.87-1.93-1.93s0.87-1.93,1.93-1.93
		C144.95,153.66,145.81,154.52,145.81,155.59z"/>
	<path class="st0" d="M125.66,135.47c0,1.07-0.87,1.93-1.93,1.93c-1.07,0-1.93-0.87-1.93-1.93c0-1.07,0.86-1.93,1.93-1.93
		C124.79,133.54,125.66,134.4,125.66,135.47z"/>
	<path class="st0" d="M132.68,89.62c0,1.07-0.87,1.93-1.93,1.93c-1.07,0-1.93-0.87-1.93-1.93s0.87-1.93,1.93-1.93
		C131.81,87.68,132.68,88.55,132.68,89.62z"/>
	<path class="st0" d="M163.18,169.03c0,1.07-0.87,1.93-1.93,1.93s-1.93-0.87-1.93-1.93c0-1.07,0.87-1.93,1.93-1.93
		S163.18,167.96,163.18,169.03z"/>
	<path class="st0" d="M173.46,173.07c0,1.07-0.87,1.93-1.93,1.93c-1.07,0-1.93-0.87-1.93-1.93c0-1.07,0.87-1.93,1.93-1.93
		C172.59,171.14,173.46,172,173.46,173.07z"/>
	<path class="st0" d="M180.73,196.78c0,1.64-1.33,2.96-2.96,2.96c-1.64,0-2.96-1.33-2.96-2.96c0-1.64,1.33-2.96,2.96-2.96
		C179.4,193.82,180.73,195.14,180.73,196.78z"/>
	<path class="st0" d="M183.04,146c0,1.07-0.87,1.93-1.93,1.93c-1.07,0-1.93-0.87-1.93-1.93c0-1.07,0.87-1.93,1.93-1.93
		C182.17,144.07,183.04,144.94,183.04,146z"/>
	<path class="st0" d="M167.1,133.24c0,1.07-0.87,1.93-1.93,1.93c-1.07,0-1.93-0.87-1.93-1.93c0-1.07,0.87-1.93,1.93-1.93
		C166.24,131.31,167.1,132.17,167.1,133.24z"/>
	<path class="st0" d="M178.8,150.01c0,1.07-0.87,1.93-1.93,1.93c-1.07,0-1.93-0.87-1.93-1.93c0-1.07,0.87-1.93,1.93-1.93
		C177.94,148.08,178.8,148.95,178.8,150.01z"/>
	<path class="st0" d="M186.55,157.66c0,1.14-0.92,2.06-2.06,2.06s-2.06-0.92-2.06-2.06c0-1.14,0.92-2.06,2.06-2.06
		S186.55,156.52,186.55,157.66z"/>
	<circle class="st0" cx="168.84" cy="149.55" r="1.5"/>
	<path class="st0" d="M162.29,123.42c0,1.07-0.87,1.93-1.93,1.93s-1.93-0.87-1.93-1.93c0-1.07,0.87-1.93,1.93-1.93
		S162.29,122.35,162.29,123.42z"/>
	<path class="st0" d="M140.88,131.31c0,1.07-0.87,1.93-1.93,1.93s-1.93-0.87-1.93-1.93c0-1.07,0.87-1.93,1.93-1.93
		S140.88,130.24,140.88,131.31z"/>
	<path class="st0" d="M124.23,65.87c0,1.07-0.87,1.93-1.93,1.93c-1.07,0-1.93-0.87-1.93-1.93c0-1.07,0.87-1.93,1.93-1.93
		C123.36,63.93,124.23,64.8,124.23,65.87z"/>
	<path class="st0" d="M103.94,63.19c0,1.83-1.48,3.31-3.31,3.31c-1.83,0-3.31-1.48-3.31-3.31c0-1.83,1.48-3.31,3.31-3.31
		C102.46,59.88,103.94,61.36,103.94,63.19z"/>
	<path class="st0" d="M135.9,53.97c0,1.07-0.87,1.93-1.93,1.93c-1.07,0-1.93-0.87-1.93-1.93c0-1.07,0.87-1.93,1.93-1.93
		C135.03,52.04,135.9,52.9,135.9,53.97z"/>
	<path class="st0" d="M192.66,77.96c0,1.07-0.87,1.93-1.93,1.93c-1.07,0-1.93-0.87-1.93-1.93c0-1.07,0.87-1.93,1.93-1.93
		C191.79,76.03,192.66,76.89,192.66,77.96z"/>
	<path class="st0" d="M188.17,61.38c0,1.07-0.87,1.93-1.93,1.93s-1.93-0.87-1.93-1.93c0-1.07,0.87-1.93,1.93-1.93
		S188.17,60.31,188.17,61.38z"/>
	<path class="st0" d="M186.01,95.99c0,1.07-0.87,1.93-1.93,1.93s-1.93-0.87-1.93-1.93c0-1.07,0.87-1.93,1.93-1.93
		S186.01,94.92,186.01,95.99z"/>
	<path class="st0" d="M191.72,107.06c0,1.38-1.12,2.5-2.5,2.5c-1.38,0-2.5-1.12-2.5-2.5c0-1.38,1.12-2.49,2.5-2.49
		C190.6,104.56,191.72,105.68,191.72,107.06z"/>
	<path class="st0" d="M192.6,118.79c0,2.29-1.86,4.15-4.15,4.15c-2.29,0-4.15-1.86-4.15-4.15c0-2.29,1.86-4.15,4.15-4.15
		C190.74,114.64,192.6,116.49,192.6,118.79z"/>
	<path class="st0" d="M181.76,112.83c0,1.21-0.99,2.2-2.2,2.2c-1.22,0-2.2-0.99-2.2-2.2c0-1.22,0.99-2.2,2.2-2.2
		C180.78,110.63,181.76,111.62,181.76,112.83z"/>
	<path class="st0" d="M160.77,209.77c0,1.07-0.87,1.93-1.93,1.93c-1.07,0-1.93-0.87-1.93-1.93c0-1.07,0.87-1.93,1.93-1.93
		C159.9,207.83,160.77,208.7,160.77,209.77z"/>
	<path class="st0" d="M126.81,174.29c0.06,1.07-0.75,1.98-1.81,2.04c-1.07,0.07-1.98-0.75-2.04-1.81c-0.06-1.07,0.75-1.98,1.81-2.04
		C125.83,172.41,126.75,173.23,126.81,174.29z"/>
	<path class="st0" d="M127.27,221.73c0.06,1.07-0.75,1.98-1.81,2.04c-1.07,0.07-1.98-0.75-2.04-1.81c-0.06-1.07,0.75-1.98,1.81-2.04
		C126.29,219.85,127.2,220.66,127.27,221.73z"/>
	<path class="st0" d="M119.04,177.26c0.06,1.07-0.75,1.98-1.81,2.04c-1.07,0.06-1.98-0.75-2.04-1.81c-0.06-1.06,0.75-1.98,1.81-2.04
		C118.06,175.39,118.97,176.2,119.04,177.26z"/>
	<path class="st0" d="M119.26,212.48c0.06,1.06-0.75,1.98-1.81,2.04c-1.07,0.06-1.98-0.75-2.04-1.81c-0.06-1.07,0.75-1.98,1.81-2.04
		C118.28,210.6,119.2,211.42,119.26,212.48z"/>
	<path class="st0" d="M117.64,256.57c0.06,1.07-0.75,1.98-1.81,2.04c-1.07,0.06-1.98-0.75-2.04-1.81c-0.06-1.07,0.75-1.98,1.81-2.05
		C116.66,254.7,117.58,255.51,117.64,256.57z"/>
	<path class="st0" d="M119.26,185.9c0.06,1.06-0.75,1.98-1.81,2.04c-1.07,0.06-1.98-0.75-2.04-1.81c-0.06-1.07,0.75-1.98,1.81-2.05
		C118.28,184.02,119.2,184.83,119.26,185.9z"/>
	<path class="st0" d="M77.26,159.34c0.06,1.07-0.75,1.98-1.81,2.05c-1.07,0.06-1.98-0.75-2.04-1.81c-0.06-1.07,0.75-1.98,1.81-2.04
		C76.28,157.46,77.2,158.28,77.26,159.34z"/>
	<path class="st0" d="M64.73,160.56c0.06,1.07-0.75,1.98-1.81,2.04c-1.07,0.06-1.98-0.75-2.05-1.81c-0.06-1.07,0.75-1.98,1.81-2.05
		C63.75,158.68,64.67,159.5,64.73,160.56z"/>
	<path class="st0" d="M92.56,158.39c0.06,1.07-0.75,1.98-1.81,2.04c-1.07,0.06-1.98-0.75-2.04-1.81c-0.06-1.07,0.75-1.98,1.81-2.04
		C91.58,156.51,92.5,157.32,92.56,158.39z"/>
	<path class="st0" d="M151.8,107.04c0,1.07-0.87,1.93-1.93,1.93c-1.07,0-1.93-0.87-1.93-1.93c0-1.07,0.87-1.93,1.93-1.93
		C150.93,105.1,151.8,105.97,151.8,107.04z"/>
	<path class="st0" d="M156.77,37.17c0,1.07-0.87,1.93-1.93,1.93c-1.07,0-1.93-0.87-1.93-1.93c0-1.07,0.87-1.93,1.93-1.93
		C155.9,35.24,156.77,36.11,156.77,37.17z"/>
	<path class="st0" d="M119.01,229.42c0,1.07-0.87,1.93-1.93,1.93c-1.07,0-1.93-0.87-1.93-1.93c0-1.07,0.87-1.93,1.93-1.93
		C118.14,227.49,119.01,228.36,119.01,229.42z"/>
	<path class="st0" d="M100.05,113.22c0,1.07-0.87,1.93-1.93,1.93c-1.07,0-1.93-0.87-1.93-1.93c0-1.07,0.87-1.93,1.93-1.93
		C99.18,111.28,100.05,112.15,100.05,113.22z"/>
	<path class="st0" d="M41.62,158.61c0,1.07-0.87,1.93-1.93,1.93c-1.07,0-1.93-0.87-1.93-1.93c0-1.07,0.87-1.93,1.93-1.93
		C40.76,156.67,41.62,157.54,41.62,158.61z"/>
	<path class="st0" d="M45.95,141.64c0,1.07-0.87,1.93-1.93,1.93c-1.07,0-1.93-0.87-1.93-1.93c0-1.07,0.87-1.93,1.93-1.93
		C45.08,139.71,45.95,140.57,45.95,141.64z"/>
	<path class="st0" d="M95.81,135.33c0,1.07-0.87,1.93-1.93,1.93c-1.07,0-1.93-0.87-1.93-1.93c0-1.07,0.87-1.93,1.93-1.93
		C94.94,133.4,95.81,134.27,95.81,135.33z"/>
	<path class="st0" d="M92.96,152.75c0,1.07-0.87,1.93-1.93,1.93c-1.07,0-1.93-0.87-1.93-1.93c0-1.07,0.87-1.93,1.93-1.93
		C92.1,150.82,92.96,151.68,92.96,152.75z"/>
	<path class="st0" d="M92.65,122.27c0,1.07-0.87,1.93-1.93,1.93s-1.93-0.87-1.93-1.93c0-1.07,0.87-1.93,1.93-1.93
		S92.65,121.2,92.65,122.27z"/>
	<path class="st0" d="M70.26,151.85c0,1.07-0.87,1.93-1.93,1.93c-1.07,0-1.93-0.87-1.93-1.93c0-1.07,0.87-1.93,1.93-1.93
		C69.39,149.92,70.26,150.78,70.26,151.85z"/>
	<path class="st0" d="M73.51,174.32c0,1.07-0.87,1.93-1.93,1.93c-1.07,0-1.93-0.87-1.93-1.93c0-1.07,0.87-1.93,1.93-1.93
		C72.64,172.38,73.51,173.25,73.51,174.32z"/>
	<path class="st0" d="M94.58,101.71c0,1.07-0.87,1.93-1.93,1.93c-1.07,0-1.93-0.87-1.93-1.93c0-1.07,0.87-1.93,1.93-1.93
		C93.72,99.77,94.58,100.64,94.58,101.71z"/>
	<path class="st0" d="M73.22,124.67c0,0.45-0.36,0.81-0.81,0.81c-0.45,0-0.81-0.36-0.81-0.81c0-0.45,0.36-0.81,0.81-0.81
		C72.86,123.86,73.22,124.23,73.22,124.67z"/>
	<path class="st0" d="M91.36,97.13c0,1.07-0.87,1.93-1.93,1.93c-1.07,0-1.93-0.87-1.93-1.93c0-1.07,0.87-1.93,1.93-1.93
		C90.49,95.19,91.36,96.06,91.36,97.13z"/>
	<path class="st0" d="M78.66,91.83c0,1.07-0.87,1.93-1.93,1.93c-1.07,0-1.93-0.87-1.93-1.93c0-1.07,0.86-1.93,1.93-1.93
		C77.79,89.89,78.66,90.76,78.66,91.83z"/>
	<path class="st0" d="M92.28,173.29c-1.37,0-2.49-1.12-2.49-2.49c0-1.37,1.12-2.49,2.49-2.49c1.37,0,2.49,1.12,2.49,2.49
		C94.77,172.17,93.66,173.29,92.28,173.29z M92.28,169.42c-0.76,0-1.37,0.62-1.37,1.37c0,0.76,0.62,1.37,1.37,1.37
		c0.76,0,1.37-0.62,1.37-1.37C93.66,170.04,93.04,169.42,92.28,169.42z"/>
	<path class="st0" d="M99.84,159.59c-1.37,0-2.49-1.12-2.49-2.49c0-1.37,1.12-2.49,2.49-2.49c1.37,0,2.49,1.12,2.49,2.49
		C102.33,158.47,101.21,159.59,99.84,159.59z M99.84,155.72c-0.76,0-1.37,0.62-1.37,1.37c0,0.76,0.62,1.37,1.37,1.37
		c0.76,0,1.37-0.62,1.37-1.37C101.21,156.34,100.6,155.72,99.84,155.72z"/>
	<path class="st0" d="M79.43,177.38c-1.37,0-2.49-1.12-2.49-2.49c0-1.37,1.12-2.49,2.49-2.49c1.37,0,2.49,1.12,2.49,2.49
		C81.93,176.27,80.81,177.38,79.43,177.38z M79.43,173.52c-0.76,0-1.37,0.62-1.37,1.37c0,0.76,0.62,1.37,1.37,1.37
		c0.76,0,1.37-0.62,1.37-1.37C80.81,174.13,80.19,173.52,79.43,173.52z"/>
	<path class="st0" d="M80.95,200.45c-1.38,0-2.49-1.12-2.49-2.49c0-1.37,1.12-2.49,2.49-2.49c1.37,0,2.49,1.12,2.49,2.49
		C83.44,199.33,82.33,200.45,80.95,200.45z M80.95,196.58c-0.76,0-1.38,0.62-1.38,1.37c0,0.76,0.62,1.37,1.38,1.37
		c0.76,0,1.37-0.62,1.37-1.37C82.33,197.2,81.71,196.58,80.95,196.58z"/>
	<path class="st0" d="M53.09,157.73c-1.37,0-2.49-1.12-2.49-2.49c0-1.37,1.12-2.49,2.49-2.49c1.37,0,2.49,1.12,2.49,2.49
		C55.58,156.61,54.46,157.73,53.09,157.73z M53.09,153.87c-0.76,0-1.37,0.62-1.37,1.37c0,0.76,0.62,1.37,1.37,1.37
		c0.76,0,1.37-0.62,1.37-1.37C54.46,154.48,53.84,153.87,53.09,153.87z"/>
	<path class="st0" d="M38.39,141.8c-1.37,0-2.49-1.12-2.49-2.49c0-1.37,1.12-2.49,2.49-2.49s2.49,1.12,2.49,2.49
		C40.88,140.68,39.77,141.8,38.39,141.8z M38.39,137.93c-0.76,0-1.37,0.62-1.37,1.37s0.62,1.37,1.37,1.37s1.37-0.62,1.37-1.37
		S39.15,137.93,38.39,137.93z"/>
	<path class="st0" d="M78.59,109.64c-1.37,0-2.49-1.12-2.49-2.49c0-1.37,1.12-2.49,2.49-2.49c1.37,0,2.49,1.12,2.49,2.49
		C81.08,108.52,79.96,109.64,78.59,109.64z M78.59,105.78c-0.76,0-1.37,0.62-1.37,1.37c0,0.76,0.62,1.37,1.37,1.37
		c0.76,0,1.37-0.62,1.37-1.37C79.96,106.39,79.35,105.78,78.59,105.78z"/>
	<path class="st0" d="M15.73,135.04c-1.37,0-2.49-1.12-2.49-2.49c0-1.37,1.12-2.49,2.49-2.49c1.37,0,2.49,1.12,2.49,2.49
		C18.22,133.93,17.1,135.04,15.73,135.04z M15.73,131.18c-0.76,0-1.37,0.62-1.37,1.37c0,0.76,0.62,1.37,1.37,1.37
		c0.76,0,1.37-0.62,1.37-1.37C17.1,131.8,16.49,131.18,15.73,131.18z"/>
	<path class="st0" d="M2.49,127.01c-1.37,0-2.49-1.12-2.49-2.49c0-1.37,1.12-2.49,2.49-2.49c1.37,0,2.49,1.12,2.49,2.49
		C4.98,125.9,3.87,127.01,2.49,127.01z M2.49,123.15c-0.76,0-1.37,0.62-1.37,1.37c0,0.76,0.62,1.37,1.37,1.37
		c0.76,0,1.37-0.62,1.37-1.37C3.87,123.77,3.25,123.15,2.49,123.15z"/>
	<path class="st0" d="M23.25,120.13c-1.37,0-2.49-1.12-2.49-2.49c0-1.37,1.12-2.49,2.49-2.49c1.37,0,2.49,1.12,2.49,2.49
		C25.74,119.02,24.62,120.13,23.25,120.13z M23.25,116.27c-0.76,0-1.37,0.62-1.37,1.37c0,0.76,0.62,1.37,1.37,1.37
		c0.76,0,1.37-0.62,1.37-1.37C24.62,116.88,24.01,116.27,23.25,116.27z"/>
	<path class="st0" d="M173.2,121.95c-1.37,0-2.49-1.12-2.49-2.49c0-1.37,1.12-2.49,2.49-2.49c1.37,0,2.49,1.12,2.49,2.49
		C175.7,120.83,174.58,121.95,173.2,121.95z M173.2,118.08c-0.76,0-1.37,0.62-1.37,1.37c0,0.76,0.62,1.37,1.37,1.37
		c0.76,0,1.37-0.62,1.37-1.37C174.58,118.7,173.96,118.08,173.2,118.08z"/>
	<path class="st0" d="M120.6,33.93c-1.38,0-2.49-1.12-2.49-2.49c0-1.37,1.12-2.49,2.49-2.49c1.37,0,2.49,1.12,2.49,2.49
		C123.09,32.82,121.98,33.93,120.6,33.93z M120.6,30.07c-0.76,0-1.38,0.62-1.38,1.37c0,0.76,0.62,1.37,1.38,1.37
		c0.76,0,1.37-0.62,1.37-1.37C121.98,30.68,121.36,30.07,120.6,30.07z"/>
	<path class="st0" d="M100.64,30.95c-1.37,0-2.49-1.12-2.49-2.49c0-1.37,1.12-2.49,2.49-2.49c1.37,0,2.49,1.12,2.49,2.49
		C103.13,29.83,102.01,30.95,100.64,30.95z M100.64,27.09c-0.76,0-1.37,0.62-1.37,1.37c0,0.76,0.62,1.37,1.37,1.37
		c0.76,0,1.37-0.62,1.37-1.37C102.01,27.7,101.39,27.09,100.64,27.09z"/>
	<path class="st0" d="M92.11,13.83c-1.38,0-2.49-1.12-2.49-2.49c0-1.37,1.12-2.49,2.49-2.49c1.37,0,2.49,1.12,2.49,2.49
		C94.61,12.71,93.49,13.83,92.11,13.83z M92.11,9.96c-0.76,0-1.37,0.62-1.37,1.37s0.62,1.37,1.37,1.37c0.76,0,1.37-0.62,1.37-1.37
		S92.87,9.96,92.11,9.96z"/>
	<path class="st0" d="M113.78,8.39c-1.37,0-2.49-1.12-2.49-2.49c0-1.37,1.12-2.49,2.49-2.49c1.37,0,2.49,1.12,2.49,2.49
		C116.27,7.27,115.16,8.39,113.78,8.39z M113.78,4.52c-0.76,0-1.37,0.62-1.37,1.37c0,0.76,0.62,1.37,1.37,1.37
		c0.76,0,1.37-0.62,1.37-1.37C115.16,5.14,114.54,4.52,113.78,4.52z"/>
	<path class="st0" d="M87.75,56.4c-1.37,0-2.49-1.12-2.49-2.49c0-1.37,1.12-2.49,2.49-2.49c1.37,0,2.49,1.12,2.49,2.49
		C90.25,55.29,89.13,56.4,87.75,56.4z M87.75,52.54c-0.76,0-1.37,0.62-1.37,1.37c0,0.76,0.62,1.37,1.37,1.37
		c0.76,0,1.37-0.62,1.37-1.37C89.13,53.15,88.51,52.54,87.75,52.54z"/>
	<path class="st0" d="M77.94,20.56c-1.37,0-2.49-1.12-2.49-2.49c0-1.37,1.12-2.49,2.49-2.49s2.49,1.12,2.49,2.49
		C80.43,19.44,79.31,20.56,77.94,20.56z M77.94,16.69c-0.76,0-1.37,0.62-1.37,1.37c0,0.76,0.62,1.37,1.37,1.37
		c0.76,0,1.37-0.62,1.37-1.37C79.31,17.31,78.7,16.69,77.94,16.69z"/>
	<path class="st0" d="M105.01,104.96c-1.37,0-2.49-1.12-2.49-2.49c0-1.37,1.12-2.49,2.49-2.49c1.37,0,2.49,1.12,2.49,2.49
		C107.5,103.84,106.38,104.96,105.01,104.96z M105.01,101.1c-0.76,0-1.37,0.62-1.37,1.37c0,0.76,0.62,1.37,1.37,1.37
		c0.76,0,1.37-0.62,1.37-1.37C106.38,101.71,105.76,101.1,105.01,101.1z"/>
	<path class="st0" d="M80.31,119.58c-1.37,0-2.49-1.12-2.49-2.49c0-1.37,1.12-2.49,2.49-2.49s2.49,1.12,2.49,2.49
		C82.8,118.46,81.68,119.58,80.31,119.58z M80.31,115.72c-0.76,0-1.37,0.62-1.37,1.37s0.62,1.37,1.37,1.37
		c0.76,0,1.37-0.62,1.37-1.37S81.06,115.72,80.31,115.72z"/>
	<path class="st0" d="M68.03,133.19c-1.37,0-2.49-1.12-2.49-2.49c0-1.37,1.12-2.49,2.49-2.49s2.49,1.12,2.49,2.49
		C70.52,132.07,69.4,133.19,68.03,133.19z M68.03,129.32c-0.76,0-1.37,0.62-1.37,1.37c0,0.76,0.62,1.37,1.37,1.37
		c0.76,0,1.37-0.62,1.37-1.37C69.4,129.94,68.78,129.32,68.03,129.32z"/>
	<path class="st0" d="M104.96,126.51c-1.37,0-2.49-1.12-2.49-2.49c0-1.37,1.12-2.49,2.49-2.49c1.37,0,2.49,1.12,2.49,2.49
		C107.45,125.39,106.33,126.51,104.96,126.51z M104.96,122.64c-0.76,0-1.37,0.62-1.37,1.37c0,0.76,0.62,1.37,1.37,1.37
		c0.76,0,1.37-0.62,1.37-1.37C106.33,123.26,105.72,122.64,104.96,122.64z"/>
	<path class="st0" d="M114,101.81c-1.37,0-2.49-1.12-2.49-2.49c0-1.37,1.12-2.49,2.49-2.49c1.37,0,2.49,1.12,2.49,2.49
		C116.49,100.69,115.37,101.81,114,101.81z M114,97.94c-0.76,0-1.37,0.62-1.37,1.37c0,0.76,0.62,1.37,1.37,1.37
		c0.76,0,1.37-0.62,1.37-1.37C115.37,98.56,114.76,97.94,114,97.94z"/>
	<path class="st0" d="M125.03,130.06c-1.37,0-2.49-1.12-2.49-2.49c0-1.37,1.12-2.49,2.49-2.49c1.37,0,2.49,1.12,2.49,2.49
		C127.52,128.94,126.4,130.06,125.03,130.06z M125.03,126.19c-0.76,0-1.37,0.62-1.37,1.37c0,0.76,0.62,1.37,1.37,1.37
		s1.37-0.62,1.37-1.37C126.4,126.81,125.79,126.19,125.03,126.19z"/>
	<path class="st0" d="M102.81,77.45c-1.37,0-2.49-1.12-2.49-2.49c0-1.37,1.12-2.49,2.49-2.49c1.37,0,2.49,1.12,2.49,2.49
		C105.3,76.33,104.19,77.45,102.81,77.45z M102.81,73.58c-0.76,0-1.37,0.62-1.37,1.37s0.62,1.37,1.37,1.37
		c0.76,0,1.37-0.62,1.37-1.37S103.57,73.58,102.81,73.58z"/>
	<path class="st0" d="M81,88.96c-1.37,0-2.49-1.12-2.49-2.49c0-1.37,1.12-2.49,2.49-2.49s2.49,1.12,2.49,2.49
		C83.49,87.84,82.37,88.96,81,88.96z M81,85.09c-0.76,0-1.37,0.62-1.37,1.37c0,0.76,0.62,1.37,1.37,1.37c0.76,0,1.37-0.62,1.37-1.37
		C82.37,85.71,81.75,85.09,81,85.09z"/>
	<path class="st0" d="M124.9,74.3c-1.38,0-2.49-1.12-2.49-2.49c0-1.37,1.12-2.49,2.49-2.49c1.37,0,2.49,1.12,2.49,2.49
		C127.39,73.18,126.27,74.3,124.9,74.3z M124.9,70.43c-0.76,0-1.37,0.62-1.37,1.37c0,0.76,0.62,1.37,1.37,1.37
		c0.76,0,1.37-0.62,1.37-1.37C126.27,71.05,125.65,70.43,124.9,70.43z"/>
	<path class="st0" d="M176.16,72.46c-1.37,0-2.49-1.12-2.49-2.49c0-1.37,1.12-2.49,2.49-2.49c1.37,0,2.49,1.12,2.49,2.49
		C178.65,71.34,177.54,72.46,176.16,72.46z M176.16,68.59c-0.76,0-1.37,0.62-1.37,1.37c0,0.76,0.62,1.37,1.37,1.37
		s1.37-0.62,1.37-1.37C177.54,69.21,176.92,68.59,176.16,68.59z"/>
	<path class="st0" d="M176.16,60.62c-1.37,0-2.49-1.12-2.49-2.49c0-1.37,1.12-2.49,2.49-2.49c1.37,0,2.49,1.12,2.49,2.49
		C178.65,59.5,177.54,60.62,176.16,60.62z M176.16,56.76c-0.76,0-1.37,0.62-1.37,1.37c0,0.76,0.62,1.37,1.37,1.37
		s1.37-0.62,1.37-1.37C177.54,57.37,176.92,56.76,176.16,56.76z"/>
	<path class="st0" d="M127.57,22c-1.37,0-2.49-1.12-2.49-2.49c0-1.37,1.12-2.49,2.49-2.49c1.37,0,2.49,1.12,2.49,2.49
		C130.06,20.88,128.94,22,127.57,22z M127.57,18.13c-0.76,0-1.37,0.62-1.37,1.37c0,0.76,0.62,1.37,1.37,1.37
		c0.76,0,1.37-0.62,1.37-1.37C128.94,18.75,128.32,18.13,127.57,18.13z"/>
	<path class="st0" d="M97.51,20.4c-1.37,0-2.49-1.12-2.49-2.49c0-1.37,1.12-2.49,2.49-2.49c1.37,0,2.49,1.12,2.49,2.49
		C100,19.28,98.88,20.4,97.51,20.4z M97.51,16.54c-0.76,0-1.37,0.62-1.37,1.37c0,0.76,0.62,1.37,1.37,1.37
		c0.76,0,1.37-0.62,1.37-1.37C98.88,17.15,98.27,16.54,97.51,16.54z"/>
	<path class="st0" d="M168.03,169.57c-1.37,0-2.49-1.12-2.49-2.49c0-1.38,1.12-2.49,2.49-2.49c1.38,0,2.49,1.12,2.49,2.49
		C170.52,168.45,169.41,169.57,168.03,169.57z M168.03,165.7c-0.76,0-1.37,0.62-1.37,1.38c0,0.76,0.62,1.37,1.37,1.37
		c0.76,0,1.37-0.62,1.37-1.37C169.41,166.32,168.79,165.7,168.03,165.7z"/>
	<path class="st0" d="M166.86,202.76c-1.37,0-2.49-1.12-2.49-2.49c0-1.37,1.12-2.49,2.49-2.49c1.37,0,2.49,1.12,2.49,2.49
		C169.35,201.64,168.23,202.76,166.86,202.76z M166.86,198.89c-0.76,0-1.37,0.62-1.37,1.37c0,0.76,0.62,1.37,1.37,1.37
		c0.76,0,1.37-0.62,1.37-1.37C168.23,199.51,167.61,198.89,166.86,198.89z"/>
	<path class="st0" d="M172.39,219.02c-1.37,0-2.49-1.12-2.49-2.49c0-1.37,1.12-2.49,2.49-2.49c1.37,0,2.49,1.12,2.49,2.49
		C174.89,217.91,173.77,219.02,172.39,219.02z M172.39,215.16c-0.76,0-1.37,0.62-1.37,1.37c0,0.76,0.62,1.37,1.37,1.37
		c0.76,0,1.37-0.62,1.37-1.37C173.77,215.77,173.15,215.16,172.39,215.16z"/>
	<path class="st0" d="M162.13,293.17c-1.37,0-2.49-1.12-2.49-2.49s1.12-2.49,2.49-2.49c1.37,0,2.49,1.12,2.49,2.49
		S163.51,293.17,162.13,293.17z M162.13,289.3c-0.76,0-1.37,0.62-1.37,1.37c0,0.76,0.62,1.37,1.37,1.37c0.76,0,1.37-0.62,1.37-1.37
		C163.51,289.92,162.89,289.3,162.13,289.3z"/>
	<path class="st0" d="M161.66,155.58c-1.37,0-2.49-1.12-2.49-2.49c0-1.38,1.12-2.49,2.49-2.49c1.37,0,2.49,1.12,2.49,2.49
		C164.15,154.47,163.03,155.58,161.66,155.58z M161.66,151.72c-0.76,0-1.37,0.62-1.37,1.38c0,0.76,0.62,1.37,1.37,1.37
		c0.76,0,1.37-0.62,1.37-1.37C163.03,152.33,162.41,151.72,161.66,151.72z"/>
	<path class="st0" d="M134.04,159.63c-1.37,0-2.49-1.12-2.49-2.49c0-1.37,1.12-2.49,2.49-2.49c1.37,0,2.49,1.12,2.49,2.49
		C136.54,158.51,135.42,159.63,134.04,159.63z M134.04,155.76c-0.76,0-1.37,0.62-1.37,1.37s0.62,1.37,1.37,1.37
		c0.76,0,1.37-0.62,1.37-1.37S134.8,155.76,134.04,155.76z"/>
	<path class="st0" d="M145.5,93.32c-1.37,0-2.49-1.12-2.49-2.49s1.12-2.49,2.49-2.49c1.38,0,2.49,1.12,2.49,2.49
		S146.88,93.32,145.5,93.32z M145.5,89.45c-0.76,0-1.37,0.62-1.37,1.37c0,0.76,0.62,1.37,1.37,1.37c0.76,0,1.38-0.62,1.38-1.37
		C146.88,90.07,146.26,89.45,145.5,89.45z"/>
	<path class="st0" d="M156.84,23.29c-1.38,0-2.49-1.12-2.49-2.49c0-1.37,1.12-2.49,2.49-2.49c1.37,0,2.49,1.12,2.49,2.49
		C159.33,22.17,158.21,23.29,156.84,23.29z M156.84,19.42c-0.76,0-1.38,0.62-1.38,1.37c0,0.76,0.62,1.37,1.38,1.37
		s1.37-0.62,1.37-1.37C158.21,20.04,157.6,19.42,156.84,19.42z"/>
	<path class="st0" d="M159.45,42.16c-1.38,0-2.49-1.12-2.49-2.49c0-1.37,1.12-2.49,2.49-2.49c1.37,0,2.49,1.12,2.49,2.49
		C161.95,41.04,160.83,42.16,159.45,42.16z M159.45,38.29c-0.76,0-1.38,0.62-1.38,1.37c0,0.76,0.62,1.37,1.38,1.37
		c0.76,0,1.37-0.62,1.37-1.37C160.83,38.91,160.21,38.29,159.45,38.29z"/>
	<path class="st0" d="M141.18,151.77c-1.37,0-2.49-1.12-2.49-2.49c0-1.37,1.12-2.49,2.49-2.49c1.38,0,2.49,1.12,2.49,2.49
		C143.67,150.65,142.55,151.77,141.18,151.77z M141.18,147.9c-0.76,0-1.37,0.62-1.37,1.37c0,0.76,0.62,1.37,1.37,1.37
		c0.76,0,1.37-0.62,1.37-1.37C142.55,148.52,141.94,147.9,141.18,147.9z"/>
	<path class="st0" d="M138.69,141.93c-1.37,0-2.49-1.12-2.49-2.49c0-1.37,1.12-2.49,2.49-2.49c1.37,0,2.49,1.12,2.49,2.49
		C141.18,140.81,140.06,141.93,138.69,141.93z M138.69,138.06c-0.76,0-1.37,0.62-1.37,1.37c0,0.76,0.62,1.37,1.37,1.37
		c0.76,0,1.37-0.62,1.37-1.37C140.06,138.68,139.44,138.06,138.69,138.06z"/>
	<path class="st0" d="M143.96,133.24c-1.37,0-2.49-1.12-2.49-2.49c0-1.37,1.12-2.49,2.49-2.49c1.38,0,2.49,1.12,2.49,2.49
		C146.46,132.12,145.34,133.24,143.96,133.24z M143.96,129.37c-0.76,0-1.37,0.62-1.37,1.37c0,0.76,0.62,1.37,1.37,1.37
		s1.37-0.62,1.37-1.37C145.34,129.99,144.72,129.37,143.96,129.37z"/>
	<path class="st0" d="M108.59,190.76c-1.37,0-2.49-1.12-2.49-2.49c0-1.37,1.12-2.49,2.49-2.49c1.37,0,2.49,1.12,2.49,2.49
		C111.09,189.64,109.97,190.76,108.59,190.76z M108.59,186.89c-0.76,0-1.37,0.62-1.37,1.37c0,0.76,0.62,1.37,1.37,1.37
		c0.76,0,1.37-0.62,1.37-1.37C109.97,187.51,109.35,186.89,108.59,186.89z"/>
	<path class="st0" d="M87.71,213.6c-1.37,0-2.49-1.12-2.49-2.49c0-1.37,1.12-2.49,2.49-2.49c1.37,0,2.49,1.12,2.49,2.49
		C90.2,212.48,89.09,213.6,87.71,213.6z M87.71,209.74c-0.76,0-1.37,0.62-1.37,1.37c0,0.76,0.62,1.37,1.37,1.37
		c0.76,0,1.37-0.62,1.37-1.37C89.09,210.35,88.47,209.74,87.71,209.74z"/>
	<path class="st0" d="M148.8,231.63c-1.37,0-2.49-1.12-2.49-2.49c0-1.37,1.12-2.49,2.49-2.49c1.37,0,2.49,1.12,2.49,2.49
		C151.29,230.51,150.17,231.63,148.8,231.63z M148.8,227.77c-0.76,0-1.37,0.62-1.37,1.37s0.62,1.37,1.37,1.37
		c0.76,0,1.37-0.62,1.37-1.37S149.55,227.77,148.8,227.77z"/>
	<path class="st0" d="M146.58,198.93c-1.37,0-2.49-1.12-2.49-2.49c0-1.38,1.12-2.49,2.49-2.49c1.37,0,2.49,1.12,2.49,2.49
		C149.07,197.81,147.96,198.93,146.58,198.93z M146.58,195.06c-0.76,0-1.37,0.62-1.37,1.38c0,0.76,0.62,1.37,1.37,1.37
		c0.76,0,1.37-0.62,1.37-1.37C147.96,195.68,147.34,195.06,146.58,195.06z"/>
	<path class="st0" d="M97.85,186.64c-1.37,0-2.49-1.12-2.49-2.49c0-1.37,1.12-2.49,2.49-2.49c1.37,0,2.49,1.12,2.49,2.49
		C100.34,185.53,99.22,186.64,97.85,186.64z M97.85,182.78c-0.76,0-1.37,0.62-1.37,1.37c0,0.76,0.62,1.37,1.37,1.37
		c0.76,0,1.37-0.62,1.37-1.37C99.22,183.4,98.61,182.78,97.85,182.78z"/>
	<path class="st0" d="M88.29,259.63c-1.37,0-2.49-1.12-2.49-2.49c0-1.37,1.12-2.49,2.49-2.49c1.37,0,2.49,1.12,2.49,2.49
		C90.78,258.51,89.67,259.63,88.29,259.63z M88.29,255.76c-0.76,0-1.37,0.62-1.37,1.37c0,0.76,0.62,1.37,1.37,1.37
		s1.37-0.62,1.37-1.37C89.67,256.38,89.05,255.76,88.29,255.76z"/>
	<path class="st0" d="M94.77,295.89c-1.37,0-2.49-1.12-2.49-2.49c0-1.37,1.12-2.49,2.49-2.49c1.37,0,2.49,1.12,2.49,2.49
		C97.27,294.78,96.15,295.89,94.77,295.89z M94.77,292.03c-0.76,0-1.37,0.62-1.37,1.37c0,0.76,0.62,1.37,1.37,1.37
		c0.76,0,1.37-0.62,1.37-1.37C96.15,292.65,95.53,292.03,94.77,292.03z"/>
	<circle class="st0" cx="117.5" cy="20.78" r="1.93"/>
	<rect x="98.12" y="133.24" class="st0" width="8.31" height="4.16"/>
	<rect x="156.6" y="242.8" class="st0" width="1.83" height="4.13"/>
	<rect x="156.6" y="249.47" class="st0" width="1.83" height="4.13"/>
	<rect x="156.6" y="256.13" class="st0" width="1.83" height="4.13"/>
	<rect x="85.13" y="221.21" class="st0" width="7.35" height="2.57"/>
	<rect x="85.13" y="225.97" class="st0" width="7.35" height="2.57"/>
	<rect x="85.13" y="230.73" class="st0" width="7.35" height="2.57"/>
	<rect x="165.17" y="248.72" class="st0" width="7.35" height="2.57"/>
	<rect x="165.17" y="253.47" class="st0" width="7.35" height="2.57"/>
	<rect x="165.17" y="258.23" class="st0" width="7.35" height="2.57"/>
	<rect x="85.13" y="235.48" class="st0" width="7.35" height="2.57"/>
	<rect x="85.13" y="240.24" class="st0" width="7.35" height="2.57"/>
	<rect x="80.1" y="23.29" class="st0" width="5.79" height="1.84"/>
	<rect x="80.1" y="26.66" class="st0" width="5.79" height="1.84"/>
	<rect x="80.1" y="30.03" class="st0" width="5.79" height="1.84"/>
	<circle class="st0" cx="150.03" cy="43.88" r="1.06"/>
	<circle class="st0" cx="132.68" cy="39.11" r="1.06"/>
	<circle class="st0" cx="150.03" cy="48.93" r="1.06"/>
	<circle class="st0" cx="150.03" cy="53.98" r="1.06"/>
	<circle class="st0" cx="150.03" cy="59.03" r="1.06"/>
	<circle class="st0" cx="157.38" cy="77.46" r="1.06"/>
	<circle class="st0" cx="157.38" cy="82.51" r="1.06"/>
	<path class="st0" d="M114.73,80.93c0,0.32-0.26,0.58-0.58,0.58c-0.32,0-0.58-0.26-0.58-0.58c0-0.32,0.26-0.58,0.58-0.58
		C114.47,80.35,114.73,80.61,114.73,80.93z"/>
	<path class="st0" d="M114.73,83.7c0,0.32-0.26,0.58-0.58,0.58c-0.32,0-0.58-0.26-0.58-0.58c0-0.32,0.26-0.58,0.58-0.58
		C114.47,83.11,114.73,83.37,114.73,83.7z"/>
	<path class="st0" d="M114.73,86.46c0,0.32-0.26,0.58-0.58,0.58c-0.32,0-0.58-0.26-0.58-0.58c0-0.32,0.26-0.58,0.58-0.58
		C114.47,85.88,114.73,86.14,114.73,86.46z"/>
	<path class="st0" d="M118.26,104.4c0,0.63-0.51,1.14-1.14,1.14c-0.63,0-1.14-0.51-1.14-1.14c0-0.63,0.51-1.14,1.14-1.14
		C117.75,103.26,118.26,103.77,118.26,104.4z"/>
	<path class="st0" d="M118.26,109.8c0,0.63-0.51,1.14-1.14,1.14c-0.63,0-1.14-0.51-1.14-1.14c0-0.63,0.51-1.14,1.14-1.14
		C117.75,108.67,118.26,109.18,118.26,109.8z"/>
	<path class="st0" d="M118.26,115.21c0,0.63-0.51,1.14-1.14,1.14c-0.63,0-1.14-0.51-1.14-1.14c0-0.63,0.51-1.14,1.14-1.14
		C117.75,114.07,118.26,114.58,118.26,115.21z"/>
	<rect x="137.01" y="110.89" class="st0" width="7.75" height="7.75"/>
	<rect x="101.28" y="109.05" class="st0" width="5.51" height="8.95"/>
	<rect x="165.17" y="132.86" class="st0" width="8.04" height="0.54"/>
	<rect x="179.59" y="118.57" class="st0" width="8.04" height="0.54"/>
	<rect x="176.54" y="65.06" class="st0" width="9.43" height="0.54"/>
	<rect x="146.02" y="36.9" class="st0" width="9.43" height="0.54"/>
	<rect x="134.11" y="114.5" class="st0" width="8.04" height="0.54"/>
	<rect x="104.44" y="134.9" class="st0" width="4.31" height="0.54"/>
	<rect x="82.54" y="144.14" class="st0" width="4.31" height="0.54"/>
	<rect x="82.54" y="146.36" class="st0" width="4.31" height="0.54"/>
	<rect x="92.13" y="179.99" class="st0" width="12.3" height="0.54"/>
	<rect x="170.12" y="166.83" class="st0" width="7.93" height="0.54"/>
	<rect x="178.47" y="181.78" class="st0" width="10.08" height="0.54"/>
	<rect x="178.47" y="179.01" class="st0" width="10.08" height="0.54"/>
	<rect x="178.47" y="176.24" class="st0" width="10.08" height="0.54"/>
	<rect x="178.47" y="173.47" class="st0" width="10.08" height="0.54"/>
	<rect x="178.47" y="170.7" class="st0" width="10.08" height="0.54"/>
	<rect x="114.05" y="156.71" class="st0" width="6.15" height="0.54"/>
	<rect x="114.05" y="154.21" class="st0" width="6.15" height="0.54"/>
	<rect x="114.05" y="151.7" class="st0" width="6.15" height="0.54"/>
	<rect x="114.05" y="149.19" class="st0" width="6.15" height="0.54"/>
	<rect x="114.05" y="146.68" class="st0" width="6.15" height="0.54"/>
	<rect x="114.05" y="144.17" class="st0" width="6.15" height="0.54"/>
	<rect x="114.05" y="141.66" class="st0" width="6.15" height="0.54"/>
	<rect x="160.16" y="81.16" class="st0" width="6.15" height="0.54"/>
	<rect x="160.16" y="78.66" class="st0" width="6.15" height="0.54"/>
	<rect x="160.16" y="76.15" class="st0" width="6.15" height="0.54"/>
	<rect x="147.66" y="93.12" class="st0" width="10.78" height="0.54"/>
	<rect x="147.66" y="90.61" class="st0" width="12.25" height="0.54"/>
	<rect x="146.15" y="88.1" class="st0" width="12.3" height="0.54"/>
	<rect x="127.03" y="71.5" class="st0" width="6.15" height="0.54"/>
	<rect x="113.82" y="49.37" class="st0" width="12.03" height="0.54"/>
	<rect x="121.73" y="25.07" class="st0" width="10.95" height="0.54"/>
	<rect x="127.87" y="287.72" class="st0" width="7.91" height="0.54"/>
	<rect x="127.87" y="285.21" class="st0" width="7.91" height="0.54"/>
	<rect x="127.87" y="282.7" class="st0" width="7.91" height="0.54"/>
	<rect x="127.87" y="280.19" class="st0" width="7.91" height="0.54"/>
	<rect x="127.87" y="277.69" class="st0" width="7.91" height="0.54"/>
	<rect x="127.87" y="275.18" class="st0" width="7.91" height="0.54"/>
	<rect x="127.87" y="272.67" class="st0" width="7.91" height="0.54"/>
	<rect x="94.66" y="252.33" class="st0" width="10.06" height="0.54"/>
	<rect x="94.66" y="249.82" class="st0" width="10.06" height="0.54"/>
	<rect x="94.66" y="247.31" class="st0" width="10.06" height="0.54"/>
	<rect x="94.66" y="244.8" class="st0" width="10.06" height="0.54"/>
	<rect x="94.66" y="242.3" class="st0" width="10.06" height="0.54"/>
	<rect x="94.66" y="239.79" class="st0" width="10.06" height="0.54"/>
	<rect x="94.66" y="237.28" class="st0" width="10.06" height="0.54"/>
	<rect x="114.26" y="164.32" class="st0" width="6.15" height="0.54"/>
	<rect x="69.13" y="151.68" class="st0" width="13.41" height="0.54"/>
	<rect x="150.8" y="183.88" class="st0" width="12.45" height="0.54"/>
	<rect x="124.44" y="115.44" class="st0" width="6.15" height="0.54"/>
	<rect x="94.41" y="56.81" class="st0" width="6.15" height="0.54"/>
	<rect x="72.26" y="124.4" class="st0" width="15.63" height="0.54"/>
	<rect x="127.67" y="152.48" class="st0" width="13.51" height="0.54"/>
	<rect x="119.88" y="161.49" class="st0" width="5.01" height="0.54"/>
	<rect x="82.54" y="148.58" class="st0" width="4.31" height="0.54"/>
	<rect x="15.31" y="138.11" class="st0" width="8.67" height="0.54"/>
	<rect x="15.31" y="140.33" class="st0" width="8.67" height="0.54"/>
	<rect x="15.31" y="142.55" class="st0" width="8.67" height="0.54"/>
	<rect x="172.94" y="104.16" class="st0" width="0.54" height="13.28"/>
	<rect x="179.32" y="113.73" class="st0" width="0.54" height="16.33"/>
	<rect x="138.68" y="116.14" class="st0" width="0.54" height="15.14"/>
	<rect x="145.88" y="63.24" class="st0" width="0.54" height="25.5"/>
	<rect x="98.17" y="74.56" class="st0" width="0.54" height="5.98"/>
	<rect x="95.24" y="74.56" class="st0" width="0.54" height="5.98"/>
	<rect x="92.3" y="74.56" class="st0" width="0.54" height="5.98"/>
	<rect x="89.36" y="74.56" class="st0" width="0.54" height="5.98"/>
	<rect x="86.42" y="74.56" class="st0" width="0.54" height="5.98"/>
	<rect x="80.48" y="124.58" class="st0" width="0.54" height="5.98"/>
	<rect x="77.54" y="124.58" class="st0" width="0.54" height="5.98"/>
	<rect x="74.61" y="124.58" class="st0" width="0.54" height="5.98"/>
	<rect x="94.02" y="107.37" class="st0" width="0.54" height="22.74"/>
	<rect x="78.92" y="130.83" class="st0" width="0.54" height="8.48"/>
	<rect x="86.3" y="130.75" class="st0" width="0.54" height="8.48"/>
	<rect x="23.69" y="124.67" class="st0" width="0.54" height="26.14"/>
	<rect x="94.34" y="46.6" class="st0" width="0.54" height="19.87"/>
	<rect x="84.57" y="30.95" class="st0" width="0.54" height="16.72"/>
	<rect x="122.54" y="33.46" class="st0" width="0.54" height="19.87"/>
	<rect x="130.11" y="163.91" class="st0" width="9.19" height="1.91"/>
	<polygon class="st0" points="131.01,198.93 127.52,195.24 127.52,181.22 131.01,181.22 	"/>
</g>
</svg>
