<?xml version="1.0" encoding="utf-8"?>
<!-- Generator: Adobe Illustrator 27.8.0, SVG Export Plug-In . SVG Version: 6.00 Build 0)  -->
<svg version="1.1" id="Camada_1" xmlns="http://www.w3.org/2000/svg" xmlns:xlink="http://www.w3.org/1999/xlink" x="0px" y="0px"
	 viewBox="0 0 512 512" style="enable-background:new 0 0 512 512;" xml:space="preserve">
<style type="text/css">
	.jp0{fill:currentColor;}
	.jp1{fill:#008CF9;}
	.jp2{fill:#88BEFB;}
	.jp3{fill:#004782;}
	.jp4{fill:#1EC1CD;}
</style>
<g>
	<path class="jp0" d="M511.79,256.62c0,19.57,0.11,39.15-0.03,58.72c-0.13,16.95-3.14,33.49-8.07,49.69
		c-9.09,29.85-24.07,56.48-44.76,79.82c-23.77,26.81-52.83,45.82-86.89,57.37c-20.64,7-41.8,9.84-63.53,9.75
		c-35.76-0.14-71.53-0.17-107.29,0.03c-25.64,0.14-49.98-5.32-73.46-15.33c-13.31-5.68-26.2-12.16-38.11-20.29
		c-29.01-19.82-51.6-45.37-67.51-76.69c-8.16-16.07-14.47-32.82-18.08-50.47c-3.08-15.05-4.12-30.32-4.06-45.7
		c0.14-33.96,0.14-67.93,0.03-101.9c-0.08-24.94,6.08-48.5,15.21-71.46c3.31-8.31,7.41-16.3,12.04-23.9
		c3.63-5.96,7.48-11.86,11.78-17.45c6.59-8.56,13.3-17.01,20.71-24.86c6.43-6.81,13.86-12.56,21.15-18.44
		c13.56-10.92,28.47-19.58,44.15-27.13c17.43-8.4,35.71-13.84,54.78-16.81c5.73-0.89,11.53-1.28,17.34-1.3
		c37.54-0.12,75.08-0.33,112.61-0.26c18.33,0.04,36.29,2.91,53.83,8.31c14.91,4.6,28.93,11.12,42.39,18.97
		c15.8,9.21,30.21,20.17,43.14,33.05c17.35,17.3,32.22,36.55,42.75,58.66c12.64,26.55,20.61,54.38,20.07,84.2
		c-0.33,17.8-0.06,35.61-0.06,53.42C511.87,256.62,511.83,256.62,511.79,256.62z"/>
	<path class="jp1" d="M286.25,251.51c0.05,5.08,0.08,5.14,5.14,5.15c20.46,0.01,40.92,0.16,61.37-0.05
		c15.9-0.16,29.84-5.95,41.45-16.62c13.44-12.35,20.78-28.01,23.57-45.92c0.47-3.01,1.61-5.92,0.2-8.94
		c-0.17-4.58,1.5-8.97,1.33-13.56c-0.04-1.16,0.64-2.26,2.02-2.56c28.39,27.63,27.43,65,11.63,92.19
		c-3.62,6.24-8.09,11.83-12.42,17.55c-0.37,0.39-0.55,0.9-0.79,1.37c-7.23,8.12-15.97,14.25-25.79,18.75c0,0-8.84,5.48-33.72,6.62
		c0,0-47.37-0.06-71.05-0.08c-4.64,0-4.64,0-4.67,4.48c-0.1,15.45-0.02,30.9-0.36,46.34c-0.23,10.51-3.18,20.33-6.66,30.38
		c-13.32,38.45-60.08,66.82-110,57.84c-20.02-3.6-37.7-12.07-53.62-24.47c-0.92-0.72-1.71-1.61-2.56-2.42
		c0.49-2.23,2.49-2.33,4.13-2.74c9.41-2.34,18.69-4.98,27.59-8.94c10.73-4.77,19.82-11.81,28.46-19.54
		c0.87-0.78-1.42-1.78-0.38-2.39c1-0.45-4.6-2.67,6.16-0.35c11.34,1.47,22.04-0.55,32.16-5.78c0.53-0.27,1.11-0.39,1.69-0.49
		c10.59-5.01,19.4-12.01,25.5-22.16c2.36-3.94,5.07-7.68,6.79-11.98c2.62-6.54,3.66-13.37,3.66-20.37
		c0.01-85.81,0-171.61,0.01-257.42c0-2.58-0.29-5.23,1.56-7.43c0.42-1.56,1.55-1.84,2.99-1.83c18.55,0.06,37.12-0.3,55.65,0.24
		c20.39,0.59,39.08,7.31,56.48,17.7c7.1,4.24,13.98,8.76,19.66,14.86c-0.93,1.39-2.44,1.25-3.82,1.4
		c-22.89,2.42-42.57,11.73-59.27,27.42c-0.86,0.81-1.69,1.65-2.88,2c-2.76,0.69-5.4-0.25-8.07-0.62
		c-6.67-0.92-13.19-0.13-19.68,1.39c-2.22,0.52-3.32,1.84-3.58,4.2c-0.26,2.34-0.58,4.66-0.58,7.03c0.01,24.4,0.04,48.8-0.03,73.21"
		/>
	<path class="jp2" d="M211.61,97.25c0.03-0.59,0.09-0.61,0.63-1.07l3.49-3.27c11.21-11.97,22.35-24.02,33.5-36.05
		c-0.03,49.72-0.05,99.45-0.08,149.17c-0.02,39-0.03,78-0.11,117c-0.02,11.22-3.66,21.17-9.74,30.73
		c-6.02,9.45-13.88,16.42-23.25,22.12c-1.47,0.89-2.92,1.52-4.66,1.33c-1.29-0.98-1.36-2.4-1.37-3.82
		c-0.05-22.31-0.08-44.62,0.01-66.94c0-0.71,0.06-1.41,0.33-2.07c0.27-1.02,0.39-2.06,0.39-3.14c-0.02-12.73,0-25.46-0.02-38.19
		c-0.01-4.39-0.21-4.61-4.61-4.61c-22.6-0.02-45.23-0.53-67.81,0.16c-18.24,0.56-33.31,8.75-45.5,22.28
		c-6.99,7.75-11.61,16.85-15.78,26.25c-2.29,5.17-2.66,10.74-3.28,16.2c-1.21,10.67-1.48,21.36,0.5,32.02
		c0.26,1.4,0.73,3.08-0.8,4.26c-6.41-3.97-10.55-10.01-14.56-16.1C38.12,311.9,44.43,266.6,75.25,241.1
		c21.55-17.82,46.09-27.61,74.12-28.17c19.29-0.38,38.6-0.3,57.9-0.26c3.2,0.01,4.22-0.87,4.22-4.17
		c-0.05-29.48,0.07-58.96,0.12-88.44L211.61,97.25z"/>
	<path class="jp3" d="M72.88,360.71c-3.36-16.4-3.73-33.09,1.08-48.93c8.16-26.87,28.19-49.41,60.47-53.53
		c2.45-0.31,4.96-0.18,7.45-0.19c21.9-0.03,43.79,0.02,65.69-0.11c3.05-0.02,4.1,0.69,4.05,3.9c-0.18,13.2-0.08,26.4-0.11,39.6
		c0,1.27,0.27,2.62-0.77,3.69c-0.44,0.01-0.87,0.01-1.31,0.01c-24.34,0-48.67-0.01-73.01,0.02c-1.71,0-3.59-0.53-5.01,0.97
		c-0.29,0.51-0.71,0.99-0.71,1.6c-0.05,13.98-1.19,28,5.26,41.28c7.44,15.35,18.45,26.64,34.53,32.82c1.5,0.58,3.3,0.82,3.82,2.77
		c-1.64,3.44-4.88,5.33-7.62,7.69c-13.24,11.36-28.63,18.38-45.53,22.37c-3.32,0.78-6.55,1.91-9.83,2.88
		c-5.84-4.11-10.55-9.39-15.13-14.75C86.12,391,79.07,377.48,73.85,362.96C73.58,362.19,73.21,361.46,72.88,360.71z"/>
	<path class="jp3" d="M421.34,168.99c-0.72,5.4-1.44,10.8-2.16,16.2c-0.06,9.26-4.98,16.04-11.85,21.37
		c-9.67,7.51-20.87,10.12-33.03,8.57c-2.01-0.26-4.01-0.15-6.01-0.22c-1.65-0.06-3.33,0.04-4.76-1.02c-1.42-1.55-1.22-3.5-1.23-5.35
		c-0.04-8.58-0.03-17.17-0.02-25.75c0.02-17.56-5.4-33.12-17.71-45.86c-6.17-6.38-13.4-11.49-21.78-14.81
		c-1.77-0.7-4.05-0.86-4.72-3.23c4.34-6.43,10.91-10.35,17.19-14.4c14.62-9.42,30.63-14.98,48.19-15.57
		c16.46,14.21,26.99,32.14,33.61,52.62C419.96,150.51,420.98,159.68,421.34,168.99z"/>
	<path class="jp4" d="M197.08,117.32c0,0-0.04,0-0.04,0C197.04,117.32,197.08,117.32,197.08,117.32z"/>
	<path class="jp2" d="M284.73,213.69c24.15,0.04,48.3,0.09,72.45,0.1c2.12,0,4.24-0.21,6.36-0.32c8.71,0.1,17.47,1.6,26.11-0.26
		c15.48-3.34,25.47-12.64,29.53-28.03c1.79,3.96,0.41,8.02-0.33,11.76c-3.4,17.39-10.8,32.92-24.32,44.8
		c-11.79,10.35-25.7,16.16-41.61,16.25c-21.19,0.12-42.37,0.02-63.56,0c-4.56,0-4.56-0.01-4.57-4.71
		C284.77,240.09,284.75,226.89,284.73,213.69z"/>
</g>
</svg>
