<?xml version="1.0" encoding="utf-8"?>
<!-- Generator: Adobe Illustrator 27.8.0, SVG Export Plug-In . SVG Version: 6.00 Build 0)  -->
<svg version="1.1" id="Camada_1" xmlns="http://www.w3.org/2000/svg" xmlns:xlink="http://www.w3.org/1999/xlink" x="0px" y="0px"
	 viewBox="0 0 512 512" style="enable-background:new 0 0 512 512;" xml:space="preserve">
<style type="text/css">
	.st0{fill:currentColor;}
	.st1{fill:currentColor; opacity: 0.1;}
</style>
<g>
	<path class="st0" d="M80.17,301.87c0,12,9.73,21.72,21.72,21.72c12,0,21.72-9.73,21.72-21.72c0-12-9.73-21.72-21.72-21.72
		C89.9,280.15,80.17,289.88,80.17,301.87z"/>
	<circle class="st0" cx="174.19" cy="301.87" r="21.72"/>
	<circle class="st0" cx="246.49" cy="301.87" r="21.72"/>
	<path class="st0" d="M337.89,285.4c-3.11,0-6.14-0.09-9.25-0.17c1.56,5.36,2.42,10.9,2.42,16.61c0,52.6-70.41,95.33-156.92,95.33
		c-19.03,0-37.54-2.08-54.93-6.14c-2.77-0.69-5.62,0.08-7.7,1.9l-51.82,46.2l6.31-62.8c0.35-3.29-1.21-6.49-4.07-8.22
		C33.22,350.1,17.3,326.57,17.3,301.83c0-49.91,63.58-91,144.12-94.9c-3.29-5.36-6.14-10.99-8.39-16.78
		C66.96,196.91,0,244.39,0,301.83c0,29.5,17.13,57.01,48.27,78.03l-7.96,79.67c-0.43,3.55,1.47,6.92,4.67,8.56
		c1.21,0.61,2.59,0.95,3.89,0.95c2.08,0,4.15-0.78,5.79-2.16l65.05-58.04c17.3,3.72,35.64,5.62,54.41,5.62
		c96.11,0,174.22-50.52,174.22-112.63c0-5.62-0.6-11.16-1.9-16.61C343.6,285.4,340.74,285.4,337.89,285.4z"/>
	<path class="st0" d="M431.9,155.49c0,12.03-9.77,21.71-21.71,21.71c-12.02,0-21.8-9.69-21.8-21.71c0-11.94,9.78-21.71,21.8-21.71
		C422.12,133.78,431.9,143.56,431.9,155.49z"/>
	<path class="st0" d="M359.58,155.49c0,12.03-9.69,21.71-21.71,21.71c-12.02,0-21.71-9.69-21.71-21.71
		c0-11.94,9.69-21.71,21.71-21.71C349.89,133.78,359.58,143.56,359.58,155.49z"/>
	<path class="st0" d="M287.26,155.49c0,12.03-9.69,21.71-21.71,21.71c-12.03,0-21.71-9.69-21.71-21.71
		c0-11.94,9.69-21.71,21.71-21.71C277.57,133.78,287.26,143.56,287.26,155.49z"/>
	<path class="st0" d="M512,155.49c0-62.02-78.11-112.54-174.13-112.54c-96.02,0-174.22,50.52-174.22,112.54
		c0,62.11,78.2,112.63,174.22,112.63c18.86,0,37.11-1.9,54.5-5.63l65.05,57.96c1.64,1.47,3.63,2.25,5.71,2.25
		c1.39,0,2.68-0.35,3.98-0.95c3.2-1.64,5.02-5.02,4.67-8.56l-7.96-79.76C494.96,212.5,512,184.99,512,155.49z M450.06,221.76
		c-2.77,1.73-4.33,4.93-3.98,8.22l6.23,62.8l-51.73-46.19c-1.64-1.39-3.72-2.16-5.79-2.16c-0.61,0-1.3,0.08-1.99,0.26
		c-17.3,4.06-35.81,6.14-54.93,6.14c-86.5,0-156.92-42.74-156.92-95.33c0-52.51,70.41-95.24,156.92-95.24s156.83,42.73,156.83,95.24
		C494.7,180.24,478.87,203.76,450.06,221.76z"/>
	<path class="st1" d="M450.06,221.76c28.8-17.99,44.64-41.52,44.64-66.26c0-52.51-70.33-95.24-156.83-95.24
		s-156.92,42.73-156.92,95.24c0,52.6,70.41,95.33,156.92,95.33c19.12,0,37.63-2.08,54.93-6.14c0.69-0.18,1.38-0.26,1.99-0.26
		c2.08,0,4.15,0.78,5.79,2.16l51.73,46.19l-6.23-62.8C445.74,226.69,447.3,223.49,450.06,221.76z M265.55,177.21
		c-12.03,0-21.71-9.69-21.71-21.71c0-11.94,9.69-21.71,21.71-21.71c12.02,0,21.71,9.77,21.71,21.71
		C287.26,167.52,277.57,177.21,265.55,177.21z M337.87,177.21c-12.02,0-21.71-9.69-21.71-21.71c0-11.94,9.69-21.71,21.71-21.71
		c12.03,0,21.71,9.77,21.71,21.71C359.58,167.52,349.89,177.21,337.87,177.21z M410.18,177.21c-12.02,0-21.8-9.69-21.8-21.71
		c0-11.94,9.78-21.71,21.8-21.71c11.94,0,21.71,9.77,21.71,21.71C431.9,167.52,422.12,177.21,410.18,177.21z"/>
</g>
</svg>
