<?xml version="1.0" encoding="utf-8"?>
<!-- Generator: Adobe Illustrator 27.8.0, SVG Export Plug-In . SVG Version: 6.00 Build 0)  -->
<svg version="1.1" id="Camada_1" xmlns="http://www.w3.org/2000/svg" xmlns:xlink="http://www.w3.org/1999/xlink" x="0px" y="0px"
	 viewBox="0 0 512 512" style="enable-background:new 0 0 512 512;" xml:space="preserve">
<style type="text/css">
	.st0{fill:currentColor;}
	.st1{fill:currentColor; opacity: 0.1;}
</style>
<g>
	<path class="st0" d="M504.32,126.22l-36.69-5.34l-4.41-10.59l22.2-29.75c2.46-3.39,2.12-8.13-0.85-11.1l-42.03-42.12
		c-2.96-2.97-7.71-3.31-11.1-0.76l-29.74,22.2l-10.59-4.32l-5.34-36.78c-0.59-4.15-4.15-7.29-8.39-7.29H317.9
		c-4.15,0-7.8,3.14-8.39,7.29l-5.34,36.78l-10.59,4.32l-29.74-22.2c-3.39-2.54-8.05-2.21-11.02,0.85L210.7,69.45
		c-2.97,2.96-3.31,7.71-0.76,11.1l22.2,29.75l-4.41,10.59l-36.78,5.34c-4.15,0.59-7.2,4.15-7.2,8.39v34.91
		c5.76,0.6,11.36,1.53,16.95,2.71V141.9l34.23-5c2.97-0.43,5.51-2.37,6.61-5.09l8.05-19.49c1.19-2.79,0.76-5.93-1.02-8.3
		l-20.68-27.8l31.69-31.69l27.71,20.76c2.46,1.78,5.59,2.12,8.3,1.02l19.49-8.05c2.8-1.18,4.75-3.64,5.17-6.61l5-34.32h44.83
		l5,34.32c0.42,2.88,2.37,5.42,5.09,6.61l19.49,8.05c2.8,1.1,5.93,0.76,8.31-1.02l27.79-20.76l31.69,31.78l-20.68,27.71
		c-1.86,2.37-2.2,5.51-1.1,8.3l8.13,19.49c1.1,2.71,3.64,4.66,6.52,5.09l34.32,5v44.83l-34.4,5c-2.88,0.43-5.42,2.38-6.61,5.17
		l-7.96,19.41c-1.19,2.71-0.76,5.93,1.02,8.3l20.76,27.8l-31.69,31.69l-27.79-20.68c-2.37-1.78-5.51-2.2-8.31-1.02l-19.49,8.05
		c-2.71,1.1-4.66,3.65-5.09,6.61l-5,34.23h-30.34c1.19,5.59,2.12,11.18,2.71,16.95h34.91c4.24,0,7.8-3.05,8.39-7.29l5.34-36.69
		l10.59-4.4l30.08,22.45c3.39,2.29,7.88,1.78,10.76-1.02l42.03-42.12c2.97-2.96,3.31-7.63,0.85-11.01l-22.29-29.83l4.32-10.51
		l36.86-5.34c4.15-0.68,7.29-4.24,7.29-8.39V134.6C511.61,130.38,508.47,126.81,504.32,126.22z"/>
	<path class="st0" d="M412.04,164.35c0-35.5-28.89-64.4-64.4-64.4c-35.5,0-64.4,28.9-64.4,64.4s28.89,64.4,64.4,64.4
		C383.15,228.76,412.04,199.86,412.04,164.35z M300.19,164.35c0-26.18,21.35-47.45,47.45-47.45c26.18,0,47.45,21.27,47.45,47.45
		c0,26.1-21.27,47.45-47.45,47.45C321.54,211.81,300.19,190.45,300.19,164.35z"/>
	<path class="st0" d="M163.51,185.29c-89.91,0-163.12,73.21-163.12,163.2c0,89.91,73.21,163.12,163.12,163.12
		c89.99,0,163.21-73.21,163.21-163.12C326.72,258.5,253.5,185.29,163.51,185.29z M163.51,494.67
		c-80.59,0-146.17-65.58-146.17-146.17c0-80.67,65.59-146.26,146.17-146.26c80.67,0,146.26,65.59,146.26,146.26
		C309.77,429.08,244.18,494.67,163.51,494.67z"/>
	<path class="st1" d="M163.51,202.23c-80.59,0-146.17,65.59-146.17,146.26c0,80.59,65.59,146.17,146.17,146.17
		c80.67,0,146.26-65.58,146.26-146.17C309.77,267.82,244.18,202.23,163.51,202.23z M184.78,279.09l41.01-24.4
		c3.98-2.46,9.15-1.1,11.61,2.88c2.37,4.07,1.1,9.24-2.96,11.61l-28.73,17.2l28.73,17.2c4.07,2.37,5.34,7.63,2.96,11.61
		c-1.61,2.71-4.41,4.15-7.29,4.15c-1.53,0-2.97-0.42-4.32-1.19l-41.01-24.49c-2.54-1.52-4.07-4.32-4.07-7.29
		S182.24,280.62,184.78,279.09z M92.59,269.18c-3.98-2.38-5.25-7.54-2.88-11.61c2.37-3.98,7.63-5.34,11.61-2.88l40.93,24.4
		c2.63,1.52,4.15,4.32,4.15,7.29s-1.52,5.76-4.15,7.29l-40.93,24.49c-1.36,0.77-2.88,1.19-4.32,1.19c-2.88,0-5.68-1.44-7.29-4.15
		c-2.37-3.98-1.1-9.24,2.88-11.61l28.81-17.2L92.59,269.18z M163.51,450.01C107.5,450.01,62,404.5,62,348.49
		c0-4.75,3.73-8.47,8.47-8.47h186.17c4.66,0,8.47,3.73,8.47,8.47C265.11,404.5,219.52,450.01,163.51,450.01z"/>
	<path class="st0" d="M256.64,340.02H70.47c-4.75,0-8.47,3.73-8.47,8.47c0,56.01,45.5,101.52,101.52,101.52c56.01,0,101.6-45.51,101.6-101.52
		C265.11,343.75,261.3,340.02,256.64,340.02z M163.51,433.06c-43.81,0-79.91-33.39-84.14-76.09h168.38
		C243.51,399.68,207.32,433.06,163.51,433.06z"/>
	<path class="st0" d="M146.39,286.38c0,2.97-1.52,5.76-4.15,7.29l-40.93,24.49c-1.36,0.77-2.88,1.19-4.32,1.19c-2.88,0-5.68-1.44-7.29-4.15
		c-2.37-3.98-1.1-9.24,2.88-11.61l28.81-17.2l-28.81-17.2c-3.98-2.38-5.25-7.54-2.88-11.61c2.37-3.98,7.63-5.34,11.61-2.88
		l40.93,24.4C144.87,280.62,146.39,283.41,146.39,286.38z"/>
	<path class="st0" d="M237.4,315.19c-1.61,2.71-4.41,4.15-7.29,4.15c-1.53,0-2.97-0.42-4.32-1.19l-41.01-24.49c-2.54-1.52-4.07-4.32-4.07-7.29
		s1.52-5.76,4.07-7.29l41.01-24.4c3.98-2.46,9.15-1.1,11.61,2.88c2.37,4.07,1.1,9.24-2.96,11.61l-28.73,17.2l28.73,17.2
		C238.51,305.95,239.78,311.21,237.4,315.19z"/>
</g>
</svg>
