<?xml version="1.0" encoding="utf-8"?>
<!-- Generator: Adobe Illustrator 27.8.0, SVG Export Plug-In . SVG Version: 6.00 Build 0)  -->
<svg version="1.1" id="Camada_1" xmlns="http://www.w3.org/2000/svg"
	xmlns:xlink="http://www.w3.org/1999/xlink" x="0px" y="0px"
	viewBox="0 0 512 512" style="enable-background:new 0 0 512 512;" xml:space="preserve">
<style type="text/css">
	.st0{fill:currentColor;}
	.st1{fill:currentColor; opacity: 0.1;}
</style>
<g>
	<path class="st0" d="M308.6,104.59c-5.74-6.17-13.56-9.65-22.25-10c-8.61,0.08-16.52,3.04-22.34,8.52l-8.43,8
		c-16.52,15.48-38.17,25.04-60.94,26.95c-0.61,0.08-1.22,0.08-1.74,0.08c9.65-10,15.73-23.56,15.73-38.6
		c0-30.51-24.86-55.38-55.47-55.38c-30.6,0-55.47,24.86-55.47,55.38c0,17.56,8.26,33.21,20.95,43.38
		c-48.51,8.6-91.46,40.25-114.93,84.76c-4,7.39-4.78,15.91-2.26,23.99c2.43,8,7.91,14.61,15.39,18.52
		c4.52,2.43,9.56,3.65,14.69,3.65c11.74,0,22.43-6.44,27.82-16.78c8.17-15.47,20.26-28.6,34.86-37.9l-0.69,65.11L55.96,425.49
		c-2.35,8.69-1.13,17.74,3.39,25.56c4.52,7.74,11.82,13.3,20.52,15.65c2.78,0.79,5.74,1.13,8.69,1.13
		c15.3,0,28.69-10.35,32.51-24.95l23.91-84.76l2.09,76.42c0.17,9.04,3.82,17.56,10.43,23.91c6.09,5.91,14.69,9.3,23.73,9.39
		c8.95-0.09,17.39-3.74,23.73-10.18c6.26-6.43,9.65-14.95,9.56-23.91l-1.65-145.18l-0.44-89.29c32.25-5.3,62.6-20.08,86.16-42.17
		l8.52-8c6.17-5.74,9.65-13.56,9.91-21.99C317.38,118.77,314.34,110.68,308.6,104.59z M115.08,99.55
		c0-20.95,17.13-37.99,38.08-37.99c20.95,0,38.08,17.04,38.08,37.99c0,21.04-17.12,38.08-38.08,38.08
		C132.2,137.63,115.08,120.59,115.08,99.55z M295.21,136.42l-8.43,8c-22.78,21.3-52.6,35.03-84.07,38.6
		c-4.43,0.52-7.74,4.26-7.74,8.69l0.52,97.02l1.65,145.19c0.09,4.35-1.57,8.52-4.61,11.65c-3.04,3.04-7.13,4.87-11.3,4.87
		c-4.52,0-8.78-1.65-11.65-4.52c-3.22-3.13-5.04-7.22-5.13-11.74l-3.74-133.71c-0.09-4.26-3.3-7.82-7.56-8.35
		c-4.35-0.52-8.26,2.09-9.48,6.26l-39.39,139.89c-2.26,8.52-11.21,14-19.99,11.65c-4.17-1.13-7.74-3.82-9.91-7.56
		c-2.17-3.82-2.78-8.26-1.65-12.43l37.82-142.23c0.17-0.7,0.26-1.39,0.35-2.17l0.78-81.02c0.09-2.96-1.48-5.74-3.91-7.39
		c-1.48-0.95-3.13-1.39-4.78-1.39c-1.22,0-2.43,0.26-3.56,0.78c-23.56,10.78-43.3,29.39-55.38,52.51
		c-3.56,6.61-12.34,9.48-19.13,5.83c-3.3-1.74-5.74-4.7-6.87-8.26c-1.13-3.65-0.78-7.48,0.96-10.78
		c21.13-39.91,59.64-68.25,103.11-75.81c10.52-1.83,21.04-2.78,31.3-2.78c14.35,0,28.69-0.61,42.69-1.83
		c26.6-2.26,51.99-13.48,71.38-31.56l8.43-8c2.61-2.43,6.35-3.82,10.17-3.82c3.74,0.17,7.22,1.74,9.82,4.52
		c2.52,2.7,3.91,6.35,3.74,10.09C299.56,130.33,298,133.8,295.21,136.42z"/>
	<path class="st1" d="M191.23,99.55c0,21.04-17.12,38.08-38.08,38.08c-20.95,0-38.08-17.04-38.08-38.08
		c0-20.95,17.13-37.99,38.08-37.99C174.11,61.56,191.23,78.6,191.23,99.55z"/>
	<path class="st1" d="M299.65,126.59c-0.09,3.74-1.65,7.21-4.43,9.82l-8.43,8c-22.78,21.3-52.6,35.03-84.07,38.6
		c-4.43,0.52-7.74,4.26-7.74,8.69l0.52,97.02l1.65,145.19c0.09,4.35-1.57,8.52-4.61,11.65c-3.04,3.04-7.13,4.87-11.3,4.87
		c-4.52,0-8.78-1.65-11.65-4.52c-3.22-3.13-5.04-7.22-5.13-11.74l-3.74-133.71c-0.09-4.26-3.3-7.82-7.56-8.35
		c-4.35-0.52-8.26,2.09-9.48,6.26l-39.39,139.89c-2.26,8.52-11.21,14-19.99,11.65c-4.17-1.13-7.74-3.82-9.91-7.56
		c-2.17-3.82-2.78-8.26-1.65-12.43l37.82-142.23c0.17-0.7,0.26-1.39,0.35-2.17l0.78-81.02c0.09-2.96-1.48-5.74-3.91-7.39
		c-1.48-0.95-3.13-1.39-4.78-1.39c-1.22,0-2.43,0.26-3.56,0.78c-23.56,10.78-43.3,29.39-55.38,52.51
		c-3.56,6.61-12.34,9.48-19.13,5.83c-3.3-1.74-5.74-4.7-6.87-8.26c-1.13-3.65-0.78-7.48,0.96-10.78
		c21.13-39.91,59.64-68.25,103.11-75.81c10.52-1.83,21.04-2.78,31.3-2.78c14.35,0,28.69-0.61,42.69-1.83
		c26.6-2.26,51.99-13.48,71.38-31.56l8.43-8c2.61-2.43,6.35-3.82,10.17-3.82c3.74,0.17,7.22,1.74,9.82,4.52
		C298.43,119.2,299.82,122.85,299.65,126.59z"/>
	<path class="st0" d="M373.68,191.75l24.43-24.43v49.03c0,15-12.2,27.2-27.2,27.2H253.96c-4.8,0-8.69,3.89-8.69,8.69
		c0,4.8,3.89,8.69,8.69,8.69H370.9c24.59,0,44.59-20,44.59-44.59v-49.03l24.43,24.43c1.7,1.7,3.92,2.55,6.15,2.55
		c2.22,0,4.45-0.85,6.15-2.55c3.4-3.4,3.4-8.9,0-12.3l-39.27-39.27c-3.26-3.26-9.03-3.26-12.29,0l-39.27,39.27
		c-3.4,3.4-3.4,8.9,0,12.3C364.78,195.14,370.28,195.14,373.68,191.75z"/>
	<path class="st0" d="M439.92,404.14l-24.43,24.43v-49.03c0-24.59-20-44.59-44.59-44.59H253.96c-4.8,0-8.69,3.89-8.69,8.69
		s3.89,8.69,8.69,8.69H370.9c15,0,27.2,12.2,27.2,27.2v49.03l-24.43-24.43c-3.4-3.39-8.9-3.39-12.29,0c-3.4,3.4-3.4,8.9,0,12.3
		l39.27,39.27c1.63,1.63,3.84,2.55,6.15,2.55c2.3,0,4.52-0.92,6.15-2.55l39.27-39.27c3.4-3.4,3.4-8.9,0-12.3
		C448.81,400.75,443.31,400.75,439.92,404.14z"/>
	<path class="st0" d="M509.45,291.8l-39.27-39.27c-3.4-3.4-8.9-3.4-12.29,0c-3.4,3.4-3.4,8.9,0,12.29l24.43,24.43H253.96
		c-4.8,0-8.69,3.9-8.69,8.69c0,4.81,3.89,8.69,8.69,8.69h228.36l-24.43,24.43c-3.4,3.4-3.4,8.9,0,12.3c1.7,1.7,3.92,2.55,6.15,2.55
		s4.45-0.85,6.15-2.55l39.27-39.27c1.63-1.63,2.55-3.84,2.55-6.15C512,295.64,511.08,293.43,509.45,291.8z"/>
</g>
</svg>