<?xml version="1.0" encoding="utf-8"?>
<!-- Generator: Adobe Illustrator 27.8.0, SVG Export Plug-In . SVG Version: 6.00 Build 0)  -->
<svg version="1.1" id="Camada_1" xmlns="http://www.w3.org/2000/svg" xmlns:xlink="http://www.w3.org/1999/xlink" x="0px" y="0px"
	 viewBox="0 0 512 512" style="enable-background:new 0 0 512 512;" xml:space="preserve">
<style type="text/css">
	.st0{fill:currentColor;}
	.st1{fill:currentColor; opacity: 0.1;}
</style>
<g>
	<path class="st0" d="M206.12,108.28c1.56,2.7,4.38,4.21,7.29,4.21c1.43,0,2.87-0.37,4.2-1.13c4.02-2.32,5.4-7.46,3.08-11.49
		l-19.75-34.2c-2.32-4.02-7.46-5.4-11.48-3.08c-4.02,2.32-5.4,7.46-3.08,11.49L206.12,108.28z"/>
	<path class="st0" d="M255.99,101.07c4.64,0,8.41-3.76,8.41-8.41V53.18c0-4.64-3.76-8.41-8.41-8.41c-4.64,0-8.41,3.76-8.41,8.41
		v39.49C247.58,97.31,251.35,101.07,255.99,101.07z"/>
	<path class="st0" d="M294.38,111.36c1.32,0.76,2.77,1.13,4.2,1.13c2.91,0,5.73-1.51,7.29-4.2l19.74-34.2
		c2.32-4.02,0.94-9.16-3.08-11.49c-4.02-2.32-9.16-0.94-11.48,3.08l-19.74,34.2C288.98,103.89,290.36,109.04,294.38,111.36z"/>
	<path class="st0" d="M56.8,350.13c0-4.64-3.76-8.41-8.41-8.41s-8.41,3.76-8.41,8.41v27.86H16.81v-17.82
		c0-45.4,36.82-82.22,82.14-82.22c18.5,0,35.48,6.05,49.27,16.39c3.36-4.45,7.06-8.74,11.01-12.69c-7.8-6.03-16.58-10.86-26-14.35
		c16.83-11.15,27.97-30.23,27.97-51.88c0-34.3-27.9-62.2-62.2-62.2s-62.2,27.91-62.2,62.2c0,21.68,11.16,40.78,28.02,51.91
		C27.05,281.28,0,317.55,0,360.17v26.23c0,4.71,3.7,8.41,8.41,8.41h111.9V378H56.8V350.13z M53.6,215.42
		c0-25.03,20.36-45.39,45.39-45.39s45.39,20.36,45.39,45.39s-20.36,45.39-45.39,45.39S53.6,240.45,53.6,215.42z"/>
	<path class="st0" d="M447.16,267.33c16.86-11.14,28.03-30.24,28.03-51.92c0-34.3-27.9-62.2-62.2-62.2s-62.2,27.91-62.2,62.2
		c0,21.65,11.13,40.73,27.96,51.88c-9.41,3.49-18.17,8.32-25.98,14.35c3.95,3.95,7.65,8.15,11.01,12.61
		c13.79-10.26,30.77-16.31,49.18-16.31c45.4,0,82.22,36.82,82.22,82.22v17.82H472v-27.86c0-4.64-3.76-8.41-8.41-8.41
		c-4.64,0-8.41,3.76-8.41,8.41v27.86h-63.49v16.81h111.9c4.71,0,8.41-3.7,8.41-8.41v-26.23C512,317.56,484.96,281.29,447.16,267.33z
		 M367.6,215.42c0-25.03,20.36-45.39,45.39-45.39s45.39,20.36,45.39,45.39s-20.36,45.39-45.39,45.39S367.6,240.45,367.6,215.42z"/>
	<path class="st0" d="M293.42,263.91c21.86-12.87,36.57-36.57,36.57-63.73c0-40.78-33.21-73.99-73.99-73.99
		c-40.77,0-73.98,33.21-73.98,73.99c0,27.16,14.71,50.86,36.49,63.73c-47.25,15.72-81.38,60.28-81.38,112.74v32.03
		c0,4.62,3.78,8.41,8.41,8.41h47.25l-18.41-16.81h-20.43v-23.62c0-56.33,45.82-102.07,102.06-102.07
		c56.25,0,102.07,45.74,102.07,102.07v23.62h-20.43l-18.41,16.81h47.25c4.62,0,8.41-3.78,8.41-8.41v-32.03
		C374.89,324.19,340.67,279.63,293.42,263.91z M198.84,200.18c0-31.53,25.64-57.17,57.17-57.17s57.17,25.64,57.17,57.17
		s-25.64,57.17-57.17,57.17C224.48,257.35,198.84,231.71,198.84,200.18z"/>
	<path class="st1" d="M313.18,200.18c0,31.53-25.64,57.17-57.17,57.17s-57.17-25.64-57.17-57.17s25.64-57.17,57.17-57.17
		C287.53,143.01,313.18,168.65,313.18,200.18z"/>
	<path class="st0" d="M334.45,373.38c-1.01-3.11-4.12-5.63-7.4-6.05l-44.56-4.96L264,321.59c-1.35-2.94-4.71-5.13-7.99-5.13
		c-3.36,0-6.72,2.18-8.07,5.13l-18.5,40.78l-44.47,4.96c-3.28,0.42-6.39,2.94-7.4,6.05c-1.01,3.19,0,7.06,2.44,9.24l33.04,30.27
		l-9,43.8c-0.59,3.28,0.84,6.98,3.45,8.91c2.69,1.93,6.73,2.19,9.58,0.5L256,444.07l38.93,22.11c1.26,0.67,2.77,1.01,4.29,1.01
		c1.93,0,3.78-0.5,5.3-1.6c2.61-1.93,4.04-5.63,3.36-8.91l-9-43.8L332,382.61C334.45,380.44,335.46,376.58,334.45,373.38z
		 M284,403.65c-2.19,2.02-3.11,5.05-2.52,7.91l6.39,31.27l-27.74-15.72c-2.52-1.51-5.72-1.51-8.33,0l-27.74,15.72l6.39-31.27
		c0.67-2.86-0.34-5.89-2.52-7.91l-23.54-21.52l31.7-3.53c2.94-0.34,5.47-2.19,6.73-4.88l13.2-29.09l13.2,29.09
		c1.18,2.69,3.78,4.54,6.73,4.88l31.7,3.53L284,403.65z"/>
	<path class="st1" d="M281.48,411.55l6.39,31.27l-27.74-15.72c-2.52-1.51-5.72-1.51-8.33,0l-27.74,15.72l6.39-31.27
		c0.67-2.86-0.34-5.89-2.52-7.91l-23.54-21.52l31.7-3.53c2.94-0.34,5.47-2.19,6.73-4.88l13.2-29.09l13.2,29.09
		c1.18,2.69,3.78,4.54,6.73,4.88l31.7,3.53L284,403.65C281.82,405.67,280.89,408.69,281.48,411.55z"/>
</g>
</svg>
