<?xml version="1.0" encoding="utf-8"?>
<!-- Generator: Adobe Illustrator 27.8.0, SVG Export Plug-In . SVG Version: 6.00 Build 0)  -->
<svg version="1.1" id="Camada_1" xmlns="http://www.w3.org/2000/svg" xmlns:xlink="http://www.w3.org/1999/xlink" x="0px" y="0px"
	 viewBox="0 0 512 512" style="enable-background:new 0 0 512 512;" xml:space="preserve">
<style type="text/css">
	.st0{fill:currentColor;}
	.st1{fill:currentColor; opacity: 0.1;}
</style>
<g>
	<path class="st0" d="M322.55,374.51h-2.61c-7,0-13.62-1.77-19.4-5.04c-3.17,3.73-5.6,7.83-7.46,12.41
		c-5.97,14.27-4.76,30.6,3.17,43.75l4.76,7.84c0.56,1.12,0.46,2.42-0.37,3.26l-19.96,19.96c-0.84,0.84-2.24,1.02-3.26,0.37
		l-7.84-4.76c-13.15-7.92-29.47-9.14-44.12-3.07c-14.27,5.97-25,18.28-28.64,33.11l-2.15,9.05c-0.28,1.12-1.4,1.96-2.61,1.96h-28.17
		c-1.21,0-2.24-0.84-2.52-1.96l-2.24-9.05c-3.64-14.83-14.37-27.24-28.92-33.21c-6.06-2.52-12.5-3.73-18.84-3.73
		c-8.67,0-17.35,2.33-24.9,6.9l-7.93,4.76c-1.02,0.65-2.33,0.46-3.17-0.37l-19.96-19.96c-0.84-0.84-1.02-2.15-0.47-3.26l4.85-7.84
		c7.93-13.15,9.05-29.47,2.99-44.12c-5.88-14.27-18.28-24.9-33.11-28.63l-8.95-2.15c-1.21-0.28-2.05-1.4-2.05-2.61v-28.17
		c0-1.21,0.84-2.24,2.05-2.52l8.95-2.24c14.83-3.64,27.24-14.37,33.3-28.92c5.88-14.27,4.76-30.69-3.17-43.75l-4.85-7.93
		c-0.56-1.02-0.47-2.33,0.47-3.17l19.96-19.96c0.84-0.84,2.15-1.02,3.17-0.37l7.93,4.76c13.06,7.92,29.38,9.14,44.03,2.98
		c4.38-1.77,8.49-4.29,12.13-7.27c-3.27-5.78-5.13-12.5-5.13-19.5v-2.52c-3.27,5.32-8.3,9.61-14.46,12.22
		c-8.86,3.64-18.94,2.98-26.96-1.86l-7.93-4.85c-8.4-5.04-19.03-3.73-26.02,3.17l-19.96,19.96c-6.9,7-8.21,17.72-3.17,26.12
		l4.85,7.83c4.85,8.03,5.5,18.1,1.68,27.33c-3.64,8.77-11.19,15.39-20.33,17.63l-8.95,2.24C6.72,301.66,0,310.15,0,319.94v28.17
		c0,9.89,6.72,18.38,16.23,20.71l8.95,2.24c9.14,2.24,16.7,8.77,20.52,18c3.64,8.77,2.99,18.84-1.86,26.86l-4.85,7.93
		c-5.04,8.39-3.73,19.12,3.17,26.02l19.96,19.96c7,7,17.63,8.21,26.02,3.17l7.93-4.76c8.02-4.85,18.1-5.59,27.33-1.77
		c8.77,3.63,15.39,11.29,17.63,20.33l2.15,8.95c2.43,9.61,10.92,16.23,20.71,16.23h28.17c9.89,0,18.38-6.62,20.71-16.23l2.15-8.95
		c2.33-9.05,8.86-16.7,18.1-20.43c8.77-3.73,18.84-2.98,26.86,1.86l7.93,4.76c8.39,5.04,19.12,3.83,26.02-3.17l19.96-19.96
		c6.9-6.9,8.21-17.63,3.17-26.02l-4.76-7.93c-4.85-8.02-5.6-18.1-1.77-27.33C312.85,382.62,317.24,377.77,322.55,374.51z"/>
	<path class="st0" d="M175.83,265.09c0.84-2.42,1.96-4.75,3.36-7l4.76-7.93c0.65-1.12,1.12-2.24,1.4-3.45
		c-2.43-0.28-4.85-0.37-7.37-0.37c-48.32,0-87.68,39.36-87.68,87.68c0,48.41,39.36,87.68,87.68,87.68
		c48.41,0,87.68-39.27,87.68-87.68c0-2.43-0.09-4.85-0.28-7.28c-1.3,0.19-2.43,0.66-3.55,1.31l-7.93,4.85
		c-2.24,1.4-4.57,2.52-7,3.36c-1.12,37.03-31.62,66.79-68.93,66.79c-38.06,0-69.03-30.97-69.03-69.02
		C108.95,296.71,138.8,266.21,175.83,265.09z"/>
	<path class="st0" d="M495.82,143.18l-8.95-2.24c-9.14-2.24-16.7-8.77-20.52-18c-3.64-8.77-2.99-18.84,1.96-26.86l4.76-7.93
		c5.04-8.39,3.73-19.12-3.17-26.02l-19.96-19.96c-6.9-7-17.63-8.21-26.02-3.17l-7.93,4.76c-8.02,4.85-18.1,5.6-27.33,1.77
		c-8.77-3.64-15.39-11.29-17.63-20.34l-2.15-8.95C366.54,6.62,358.05,0,348.17,0H320c-9.79,0-18.38,6.62-20.71,16.23l-2.15,8.95
		c-2.24,9.05-8.86,16.7-18,20.52c-8.86,3.64-18.94,2.89-26.96-1.96l-7.93-4.76c-8.39-5.04-19.12-3.82-26.02,3.17l-19.96,19.96
		c-6.9,6.9-8.21,17.63-3.17,26.02l4.85,7.93c4.85,8.03,5.5,18.1,1.68,27.33c-3.64,8.77-11.19,15.3-20.33,17.54l-8.95,2.24
		c-9.51,2.33-16.23,10.82-16.23,20.71v28.17c0,9.79,6.72,18.28,16.23,20.61l8.95,2.24c9.14,2.24,16.7,8.86,20.52,18
		c3.64,8.86,2.99,18.94-1.87,26.96l-4.85,7.83c-5.04,8.39-3.73,19.12,3.17,26.12l19.96,19.96c6.9,6.9,17.63,8.21,26.02,3.17
		l7.93-4.85c8.02-4.85,18.1-5.5,27.33-1.68c8.77,3.64,15.39,11.2,17.63,20.34l2.15,8.95c2.33,9.51,10.91,16.14,20.71,16.14h28.17
		c9.89,0,18.37-6.62,20.71-16.14l2.15-8.95c2.24-9.14,8.86-16.7,18-20.52c8.86-3.63,18.94-2.98,26.96,1.87l7.93,4.85
		c8.4,5.04,19.12,3.73,26.02-3.17l19.96-19.96c6.9-7,8.21-17.73,3.17-26.12l-4.76-7.83c-4.94-8.02-5.6-18.1-1.77-27.33
		c3.64-8.77,11.19-15.39,20.33-17.63l8.95-2.24c9.51-2.33,16.23-10.82,16.23-20.61v-28.17C512.05,154,505.34,145.51,495.82,143.18z
		 M493.4,192.06c0,1.21-0.84,2.24-2.05,2.52l-8.95,2.24c-14.83,3.64-27.24,14.37-33.21,28.92c-5.97,14.27-4.85,30.69,3.08,43.75
		l4.85,7.93c0.56,1.02,0.47,2.33-0.37,3.17l-19.96,19.96c-0.93,0.84-2.24,1.03-3.27,0.37l-7.84-4.76
		c-13.15-7.93-29.47-9.05-44.12-2.99c-14.27,5.88-25,18.28-28.64,33.12l-2.15,8.95c-0.37,1.21-1.4,1.96-2.61,1.96H320
		c-1.21,0-2.24-0.75-2.52-1.96l-2.24-8.95c-3.64-14.83-14.36-27.24-29.01-33.3c-5.97-2.52-12.41-3.73-18.75-3.73
		c-8.67,0-17.35,2.33-24.9,6.9l-7.93,4.76c-1.03,0.66-2.33,0.47-3.26-0.37l-19.87-19.96c-0.93-0.84-1.03-2.15-0.47-3.17l4.85-7.93
		c7.93-13.06,9.05-29.47,2.99-44.02c-5.88-14.27-18.28-25-33.11-28.64l-8.95-2.24c-1.21-0.28-2.05-1.31-2.05-2.52v-28.17
		c0-1.21,0.84-2.33,2.05-2.61l8.95-2.15c14.83-3.73,27.24-14.37,33.21-29.01c5.97-14.27,4.85-30.59-3.08-43.75l-4.85-7.83
		c-0.56-1.02-0.46-2.42,0.47-3.27l19.87-19.96c0.93-0.84,2.24-1.02,3.26-0.37l7.93,4.76c13.06,7.93,29.38,9.14,44.03,3.08
		c14.27-5.88,25-18.28,28.63-33.12l2.24-9.05c0.28-1.12,1.3-1.96,2.52-1.96h28.17c1.21,0,2.24,0.84,2.61,1.96l2.15,9.05
		c3.64,14.83,14.36,27.24,28.92,33.21c14.37,5.97,30.69,4.76,43.75-3.17l7.93-4.76c1.02-0.65,2.33-0.46,3.27,0.37l19.96,19.96
		c0.84,0.84,0.93,2.24,0.37,3.27l-4.85,7.83c-7.93,13.15-9.05,29.48-2.99,44.12c5.88,14.27,18.28,24.91,33.11,28.64l8.95,2.15
		c1.21,0.28,2.05,1.4,2.05,2.61V192.06z"/>
	<path class="st1" d="M491.34,161.28l-8.95-2.15c-14.83-3.73-27.24-14.37-33.11-28.64c-6.06-14.64-4.94-30.97,2.99-44.12l4.85-7.83
		c0.56-1.02,0.47-2.42-0.37-3.27l-19.96-19.96c-0.93-0.84-2.24-1.02-3.27-0.37l-7.93,4.76c-13.06,7.93-29.38,9.14-43.75,3.17
		c-14.55-5.97-25.28-18.37-28.92-33.21l-2.15-9.05c-0.37-1.12-1.4-1.96-2.61-1.96H320c-1.21,0-2.24,0.84-2.52,1.96l-2.24,9.05
		c-3.64,14.83-14.36,27.24-28.63,33.12c-14.65,6.06-30.97,4.85-44.03-3.08l-7.93-4.76c-1.03-0.65-2.33-0.46-3.26,0.37l-19.87,19.96
		c-0.93,0.84-1.03,2.24-0.47,3.27l4.85,7.83c7.93,13.15,9.05,29.48,3.08,43.75c-5.97,14.65-18.38,25.28-33.21,29.01l-8.95,2.15
		c-1.21,0.28-2.05,1.4-2.05,2.61v28.17c0,1.21,0.84,2.24,2.05,2.52l8.95,2.24c14.83,3.64,27.24,14.37,33.11,28.64
		c6.06,14.55,4.94,30.97-2.99,44.02l-4.85,7.93c-0.56,1.02-0.46,2.33,0.47,3.17l19.87,19.96c0.93,0.84,2.24,1.03,3.26,0.37
		l7.93-4.76c7.55-4.57,16.23-6.9,24.9-6.9c6.34,0,12.78,1.21,18.75,3.73c14.65,6.06,25.37,18.46,29.01,33.3l2.24,8.95
		c0.28,1.21,1.3,1.96,2.52,1.96h28.17c1.21,0,2.24-0.75,2.61-1.96l2.15-8.95c3.64-14.83,14.36-27.24,28.64-33.12
		c14.65-6.06,30.97-4.94,44.12,2.99l7.84,4.76c1.02,0.66,2.33,0.47,3.27-0.37l19.96-19.96c0.84-0.84,0.93-2.15,0.37-3.17l-4.85-7.93
		c-7.93-13.06-9.05-29.47-3.08-43.75c5.97-14.55,18.38-25.28,33.21-28.92l8.95-2.24c1.21-0.28,2.05-1.31,2.05-2.52v-28.17
		C493.4,162.68,492.56,161.56,491.34,161.28z M334.08,265.65c-48.32,0-87.68-39.37-87.68-87.68c0-48.41,39.36-87.68,87.68-87.68
		c48.32,0,87.68,39.27,87.68,87.68C421.76,226.29,382.4,265.65,334.08,265.65z"/>
	<path class="st0" d="M334.08,90.29c-48.32,0-87.68,39.27-87.68,87.68c0,48.31,39.36,87.68,87.68,87.68
		c48.32,0,87.68-39.37,87.68-87.68C421.76,129.56,382.4,90.29,334.08,90.29z M334.08,247c-38.06,0-69.02-30.97-69.02-69.02
		s30.97-69.03,69.02-69.03c38.06,0,69.03,30.97,69.03,69.03S372.14,247,334.08,247z"/>
	<path class="st0" d="M65.44,155.25c1.82,1.82,4.21,2.73,6.6,2.73c2.39,0,4.78-0.91,6.59-2.73l34.08-34.09
		c3.64-3.64,3.64-9.55,0-13.19c-3.64-3.64-9.55-3.64-13.19,0l-18.16,18.16V47.6h76.48c5.15,0,9.33-4.18,9.33-9.33
		s-4.18-9.33-9.33-9.33H72.03c-5.15,0-9.33,4.18-9.33,9.33v87.86l-18.16-18.16c-3.64-3.64-9.55-3.64-13.19,0
		c-3.64,3.64-3.64,9.55,0,13.19L65.44,155.25z"/>
	<path class="st0" d="M446.63,356.75c-3.64-3.64-9.55-3.64-13.19,0l-34.08,34.08c-3.64,3.64-3.64,9.55,0,13.19
		c3.64,3.64,9.55,3.64,13.19,0l18.16-18.16v78.53h-76.48c-5.15,0-9.33,4.18-9.33,9.33s4.18,9.33,9.33,9.33h85.81
		c5.15,0,9.33-4.18,9.33-9.33v-87.86l18.16,18.16c1.82,1.82,4.21,2.73,6.59,2.73s4.78-0.91,6.59-2.73c3.64-3.64,3.64-9.55,0-13.19
		L446.63,356.75z"/>
</g>
</svg>
