<?xml version="1.0" encoding="utf-8"?>
<!-- Generator: Adobe Illustrator 27.8.0, SVG Export Plug-In . SVG Version: 6.00 Build 0)  -->
<svg version="1.1" id="Camada_1" xmlns="http://www.w3.org/2000/svg" xmlns:xlink="http://www.w3.org/1999/xlink" x="0px" y="0px"
	 viewBox="0 0 512 512" style="enable-background:new 0 0 512 512;" xml:space="preserve">
<style type="text/css">
	.st0{fill:currentColor;}
	.st1{fill:currentColor; opacity: 0.1;}
</style>
<g>
	<path class="st0" d="M435.47,70.76h-72.7V48.51c0-5.03-4.12-9.16-9.16-9.16h-41.2c-8.88-23.26-31.13-39-56.31-39
		c-25.27,0-47.52,15.75-56.31,39h-41.3c-5.04,0-9.16,4.12-9.16,9.16v22.25H76.53c-5.04,0-9.16,4.12-9.16,9.16v422.57
		c0,5.03,4.12,9.16,9.16,9.16h358.93c5.04,0,9.16-4.12,9.16-9.16V79.92C444.62,74.88,440.5,70.76,435.47,70.76z M167.64,57.67h38.82
		c4.21,0,7.88-2.93,8.88-6.96c4.67-18.86,21.43-32.05,40.75-32.05c19.23,0,35.98,13.18,40.65,32.05c1.1,4.03,4.76,6.96,8.88,6.96
		h38.82v43.68H167.64V57.67z M426.31,493.34H85.69V89.08h63.64v21.42c0,5.04,4.12,9.16,9.16,9.16h195.13c5.04,0,9.16-4.12,9.16-9.16
		V89.08h63.55V493.34z"/>
	<path class="st1" d="M305.63,57.67c-4.12,0-7.78-2.93-8.88-6.96c-4.67-18.86-21.43-32.05-40.65-32.05
		c-19.32,0-36.08,13.18-40.75,32.05c-1.01,4.03-4.67,6.96-8.88,6.96h-38.82v43.68h176.81V57.67H305.63z M256.09,79.19
		c-10.16,0-18.41-8.24-18.41-18.41c0-10.07,8.24-18.31,18.41-18.31c10.07,0,18.31,8.24,18.31,18.31
		C274.41,70.95,266.16,79.19,256.09,79.19z"/>
	<path class="st0" d="M274.41,60.78c0,10.17-8.24,18.41-18.31,18.41c-10.16,0-18.41-8.24-18.41-18.41
		c0-10.07,8.24-18.31,18.41-18.31C266.16,42.47,274.41,50.71,274.41,60.78z"/>
	<path class="st0" d="M322.26,180.05c-3.43-3.43-9.51-3.43-12.95,0l-37.7,37.7c-3.58,3.58-3.58,9.38,0,12.95
		c3.58,3.58,9.38,3.58,12.95,0l22.07-22.06v53.4c0,16.32-11.08,30.38-26.94,34.2l-82.76,19.92c-24.12,5.81-40.97,27.19-40.97,52.01
		v62.46c0,5.06,4.1,9.16,9.16,9.16c5.06,0,9.16-4.1,9.16-9.16v-62.46c0-16.32,11.08-30.38,26.94-34.2l82.76-19.92
		c24.12-5.81,40.97-27.19,40.97-52.01v-53.41l22.07,22.07c1.79,1.79,4.13,2.68,6.47,2.68c2.34,0,4.69-0.89,6.47-2.68
		c3.58-3.58,3.58-9.38,0-12.95L322.26,180.05z"/>
	<path class="st0" d="M342.57,362.43c-3.58-3.57-9.38-3.57-12.95,0l-21.47,21.47l-21.47-21.47c-3.58-3.57-9.38-3.57-12.95,0
		c-3.58,3.58-3.58,9.38,0,12.95l21.47,21.47l-21.47,21.47c-3.58,3.57-3.58,9.37,0,12.95c1.79,1.79,4.13,2.68,6.47,2.68
		c2.34,0,4.69-0.89,6.47-2.68l21.47-21.47l21.47,21.47c1.79,1.79,4.13,2.68,6.47,2.68c2.34,0,4.69-0.89,6.47-2.68
		c3.58-3.58,3.58-9.38,0-12.95l-21.47-21.47l21.47-21.47C346.15,371.8,346.15,366,342.57,362.43z"/>
	<path class="st0" d="M165.11,245.52l21.47-21.47l21.47,21.47c1.79,1.78,4.13,2.68,6.47,2.68c2.34,0,4.69-0.89,6.47-2.68
		c3.58-3.58,3.58-9.38,0-12.95l-21.47-21.47l21.47-21.47c3.58-3.58,3.58-9.38,0-12.95c-3.58-3.58-9.38-3.58-12.95,0l-21.47,21.47
		l-21.47-21.47c-3.58-3.58-9.38-3.58-12.95,0c-3.58,3.57-3.58,9.37,0,12.95l21.47,21.47l-21.47,21.47c-3.58,3.58-3.58,9.38,0,12.95
		c1.79,1.78,4.13,2.68,6.47,2.68C160.98,248.19,163.32,247.3,165.11,245.52z"/>
</g>
</svg>
