<?xml version="1.0" encoding="utf-8"?>
<!-- Generator: Adobe Illustrator 27.8.0, SVG Export Plug-In . SVG Version: 6.00 Build 0)  -->
<svg version="1.1" id="Camada_1" xmlns="http://www.w3.org/2000/svg" xmlns:xlink="http://www.w3.org/1999/xlink" x="0px" y="0px"
	 viewBox="0 0 512 512" style="enable-background:new 0 0 512 512;" xml:space="preserve">
<style type="text/css">
	.st0{fill:currentColor;}
	.st1{fill:currentColor; opacity: 0.1;}
</style>
<g>
	<path class="st0" d="M359.5,112.31c-30.72-28.91-70.9-43.36-113.17-40.73c-75.81,4.73-136.53,65.45-141.26,141.26
		c-3,47.91,16.18,93.27,52.54,124.45c23.18,19.9,36.45,49.45,36.45,81.08v37.18c0,5,4.09,9.09,9.09,9.09h2.27
		C207.34,484,214.52,512,255.97,512c41.45,0,48.72-28,50.63-47.36h2.27c5,0,9.09-4.09,9.09-9.09v-37.72
		c0-30.63,14-60.63,38.27-82.09c32.45-28.63,50.99-69.9,50.99-113.17C407.23,180.94,389.86,140.76,359.5,112.31z M261.7,144.67
		c2.18-1.73,3.36-4.36,3.36-7.09V89.94c30.73,2,59.27,14.27,81.99,35.54c26.45,24.9,41.18,58.36,41.91,94.45h-29.63
		c0.55-2.27,0.73-4.64,0.73-6.91c0-2.91-0.36-5.82-1.09-8.73c-3.09-11.73-12.63-21.09-24.45-23.91
		c-10.18-2.37-20.63-0.09-28.63,6.27c-8,6.36-12.73,16.18-12.73,26.36c0,2.27,0.27,4.64,0.73,6.91h-28.82V179.3
		c0-2.73-1.18-5.36-3.36-7.09c-2.09-1.73-4.91-2.37-7.64-1.82c-3.45,0.82-6.54,1.64-9.36,2.55c-5.91,1.91-12.91-0.18-16.73-5.09
		c-2.91-3.64-4-8.46-2.91-13.18c1.27-5.27,5.55-9.64,10.73-11c3.09-0.82,6.09-0.73,8.91,0.27c3,0.91,6.09,1.82,9.36,2.55
		C256.79,147.03,259.6,146.4,261.7,144.67z M123.25,214.02c4.09-66.54,57.27-119.8,123.62-124.17v35.81
		c-5.09-1.09-10.36-1-15.63,0.36c-11.73,3.09-21.09,12.64-23.82,24.45c-2.45,10.18-0.09,20.63,6.27,28.73
		c7.73,9.72,21,14.55,33.18,11.91v28.81h-40.63c-2.73,0-5.27,1.27-7,3.36c-1.73,2.18-2.45,5-1.82,7.63
		c0.73,3.45,1.54,6.54,2.45,9.36c0.55,1.55,0.82,3.18,0.82,4.73c0,4.64-2.18,9.18-5.82,12.09c-3.73,2.91-8.46,3.91-13.27,2.82
		c-5.18-1.27-9.63-5.54-11-10.73c-0.36-1.36-0.55-2.81-0.55-4.18c0-1.54,0.27-3.18,0.82-4.73c1-3,1.82-6.09,2.55-9.36
		c0.54-2.64-0.09-5.45-1.82-7.63c-1.73-2.1-4.27-3.36-7.09-3.36h-41.36C123.25,217.93,123.07,216.03,123.25,214.02z M169.43,323.47
		c-25.81-22.09-41.54-52.36-45.36-85.35h28.63c-0.55,2.27-0.82,4.63-0.82,6.91c0,2.91,0.45,5.82,1.18,8.73
		c3,11.73,12.63,21.09,24.45,23.91c2.64,0.55,5.27,0.91,7.91,0.91c7.45,0,14.82-2.54,20.72-7.27c7.91-6.27,12.73-16.09,12.73-26.27
		c0-2.36-0.27-4.63-0.73-6.91h28.72v40.63c0,2.73,1.27,5.37,3.46,7.09c2.09,1.73,4.91,2.36,7.64,1.73c3.36-0.73,6.45-1.54,9.36-2.45
		c5.91-2,12.82,0.18,16.73,5c2.91,3.73,3.91,8.55,2.82,13.27c-1.18,5.27-5.45,9.64-10.64,11c-3.18,0.82-6.09,0.73-9-0.27
		c-2.91-1-6-1.82-9.27-2.54c-2.73-0.55-5.55,0.09-7.64,1.82c-2.18,1.73-3.46,4.36-3.46,7.09v71.99h-37.36
		C204.06,365.65,190.16,341.29,169.43,323.47z M255.97,493.82c-22.81,0-29.81-9.45-32.18-29.18h64.45
		C285.87,484.37,278.87,493.82,255.97,493.82z M299.78,417.83v28.63h-87.54v-28.09c0-2.55-0.27-5.09-0.45-7.73h88.36
		C300.06,413.01,299.78,415.46,299.78,417.83z M344.23,322.11c-21.54,19-36,43.82-41.72,70.36h-37.45v-60.08
		c5.09,1.09,10.36,0.91,15.73-0.46c11.73-3,21.09-12.64,23.82-24.45c2.36-10.18,0.09-20.63-6.27-28.63
		c-7.73-9.72-21-14.55-33.27-11.91v-28.82h40.63c2.73,0,5.36-1.27,7.09-3.36c1.73-2.18,2.37-5,1.82-7.63
		c-0.73-3.45-1.54-6.55-2.55-9.45c-0.45-1.46-0.73-3.09-0.73-4.64c0-4.73,2.18-9.18,5.82-12.09c3.64-2.91,8.46-3.91,13.18-2.82
		c5.27,1.19,9.72,5.55,11,10.64c0.36,1.45,0.55,2.91,0.55,4.27c0,1.55-0.27,3.18-0.73,4.73c-1,2.91-1.82,6-2.55,9.37
		c-0.64,2.64,0.09,5.45,1.82,7.63c1.73,2.09,4.27,3.36,7,3.36h40.63C384.23,270.38,368.78,300.38,344.23,322.11z"/>
	<path class="st1" d="M359.32,219.94c0.55-2.27,0.73-4.64,0.73-6.91c0-2.91-0.36-5.82-1.09-8.73
		c-3.09-11.73-12.63-21.09-24.45-23.91c-10.18-2.37-20.63-0.09-28.63,6.27c-8,6.36-12.73,16.18-12.73,26.36
		c0,2.27,0.27,4.64,0.73,6.91h-28.82V179.3c0-2.73-1.18-5.36-3.36-7.09c-2.09-1.73-4.91-2.37-7.64-1.82
		c-3.45,0.82-6.54,1.64-9.36,2.55c-5.91,1.91-12.91-0.18-16.73-5.09c-2.91-3.64-4-8.46-2.91-13.18c1.27-5.27,5.55-9.64,10.73-11
		c3.09-0.82,6.09-0.73,8.91,0.27c3,0.91,6.09,1.82,9.36,2.55c2.73,0.55,5.55-0.09,7.64-1.82c2.18-1.73,3.36-4.36,3.36-7.09V89.94
		c30.73,2,59.27,14.27,81.99,35.54c26.45,24.9,41.18,58.36,41.91,94.45H359.32z"/>
	<path class="st1" d="M286.88,303.38c-1.18,5.27-5.45,9.64-10.64,11c-3.18,0.82-6.09,0.73-9-0.27c-2.91-1-6-1.82-9.27-2.54
		c-2.73-0.55-5.55,0.09-7.64,1.82c-2.18,1.73-3.46,4.36-3.46,7.09v71.99h-37.36c-5.46-26.82-19.36-51.18-40.09-69
		c-25.81-22.09-41.54-52.36-45.36-85.35h28.63c-0.55,2.27-0.82,4.63-0.82,6.91c0,2.91,0.45,5.82,1.18,8.73
		c3,11.73,12.63,21.09,24.45,23.91c2.64,0.55,5.27,0.91,7.91,0.91c7.45,0,14.82-2.54,20.72-7.27c7.91-6.27,12.73-16.09,12.73-26.27
		c0-2.36-0.27-4.63-0.73-6.91h28.72v40.63c0,2.73,1.27,5.37,3.46,7.09c2.09,1.73,4.91,2.36,7.64,1.73c3.36-0.73,6.45-1.54,9.36-2.45
		c5.91-2,12.82,0.18,16.73,5C286.97,293.84,287.96,298.66,286.88,303.38z"/>
	<path class="st0" d="M104.1,113.03c1.68,1.33,3.68,1.98,5.66,1.98c2.67,0,5.32-1.17,7.11-3.42c3.13-3.92,2.49-9.64-1.44-12.77
		L94.78,82.35c-3.93-3.13-9.65-2.48-12.77,1.44c-3.13,3.93-2.49,9.65,1.44,12.78L104.1,113.03z"/>
	<path class="st0" d="M166.65,57.97c1.56,3.25,4.81,5.15,8.2,5.15c1.32,0,2.67-0.29,3.94-0.91c4.52-2.18,6.42-7.61,4.25-12.13
		l-11.46-23.8c-2.18-4.52-7.61-6.42-12.13-4.24c-4.52,2.18-6.42,7.61-4.25,12.14L166.65,57.97z"/>
	<path class="st0" d="M256,44.59c5.02,0,9.09-4.07,9.09-9.09V9.09c0-5.02-4.07-9.09-9.09-9.09c-5.02,0-9.09,4.07-9.09,9.09V35.5
		C246.91,40.52,250.98,44.59,256,44.59z"/>
	<path class="st0" d="M333.21,62.21c1.27,0.61,2.61,0.9,3.94,0.9c3.38,0,6.63-1.9,8.2-5.15l11.46-23.8
		c2.18-4.52,0.28-9.96-4.25-12.13c-4.52-2.17-9.95-0.28-12.13,4.25l-11.46,23.8C326.78,54.6,328.69,60.03,333.21,62.21z"/>
	<path class="st0" d="M402.24,115.02c1.99,0,3.99-0.65,5.66-1.98l20.65-16.47c3.92-3.13,4.57-8.85,1.44-12.77
		c-3.12-3.92-8.84-4.57-12.77-1.44l-20.65,16.47c-3.92,3.13-4.57,8.85-1.44,12.77C396.92,113.84,399.57,115.02,402.24,115.02z"/>
</g>
</svg>
