<?xml version="1.0" encoding="utf-8"?>
<!-- Generator: Adobe Illustrator 27.8.0, SVG Export Plug-In . SVG Version: 6.00 Build 0)  -->
<svg version="1.1" id="Camada_1" xmlns="http://www.w3.org/2000/svg" xmlns:xlink="http://www.w3.org/1999/xlink" x="0px" y="0px"
	 viewBox="0 0 512 512" style="enable-background:new 0 0 512 512;" xml:space="preserve">
<style type="text/css">
	.st0{fill:currentColor;}
	.st1{fill:currentColor; opacity: 0.1;}
</style>
<g>
	<path class="st0" d="M147.93,243.23c4.92,0,8.91-3.99,8.91-8.91c0-4.92-3.99-8.91-8.91-8.91H90.99
		c-4.07-17.6-19.79-30.8-38.61-30.8c-21.89,0-39.71,17.81-39.71,39.71s17.81,39.7,39.71,39.7c18.82,0,34.54-13.19,38.61-30.79
		H147.93z M52.38,256.2c-12.07,0-21.89-9.82-21.89-21.88c0-12.07,9.82-21.89,21.89-21.89c12.07,0,21.88,9.82,21.88,21.89
		C74.27,246.39,64.45,256.2,52.38,256.2z"/>
	<path class="st0" d="M109.38,136.42c7.56,0,14.75-2.18,21-6.1l40.26,40.26c1.74,1.74,4.02,2.61,6.3,2.61c2.28,0,4.56-0.87,6.3-2.61
		c3.48-3.48,3.48-9.12,0-12.6l-40.26-40.26c9.57-15.32,7.78-35.77-5.53-49.08c-7.5-7.5-17.47-11.63-28.08-11.63
		c-10.61,0-20.58,4.13-28.07,11.63c-15.48,15.49-15.48,40.67,0,56.15C88.81,132.29,98.78,136.42,109.38,136.42z M93.91,81.24
		c4.13-4.13,9.63-6.41,15.47-6.41c5.85,0,11.34,2.28,15.48,6.41c8.53,8.53,8.53,22.42,0,30.95c-8.27,8.26-22.68,8.27-30.95,0
		C85.37,103.65,85.37,89.77,93.91,81.24z"/>
	<path class="st0" d="M238.09,78.32v56.94c0,4.93,3.99,8.91,8.91,8.91c4.92,0,8.91-3.99,8.91-8.91V78.32
		c17.6-4.06,30.8-19.79,30.8-38.61C286.71,17.81,268.89,0,247,0s-39.7,17.81-39.7,39.71C207.29,58.53,220.49,74.25,238.09,78.32z
		 M247,17.82c12.07,0,21.89,9.82,21.89,21.89c0,12.07-9.82,21.89-21.89,21.89c-12.07,0-21.88-9.82-21.88-21.89
		C225.12,27.64,234.93,17.82,247,17.82z"/>
	<path class="st0" d="M317.05,173.18c2.28,0,4.56-0.87,6.3-2.61l40.26-40.26c6.41,4,13.69,6.08,21,6.08
		c10.17,0,20.33-3.87,28.07-11.61c15.48-15.48,15.48-40.67,0-56.15c-15.48-15.49-40.67-15.48-56.15,0
		c-13.31,13.31-15.1,33.75-5.53,49.08l-40.26,40.26c-3.48,3.48-3.48,9.12,0,12.6C312.49,172.31,314.77,173.18,317.05,173.18z
		 M369.14,81.23c4.27-4.27,9.87-6.4,15.48-6.4c5.6,0,11.21,2.14,15.47,6.4c8.53,8.53,8.53,22.42,0,30.95s-22.42,8.53-30.95,0
		S360.61,89.77,369.14,81.23z"/>
	<path class="st0" d="M403,225.41h-56.94c-4.92,0-8.91,3.99-8.91,8.91c0,4.92,3.99,8.91,8.91,8.91H403
		c4.07,17.6,19.79,30.8,38.61,30.8c21.89,0,39.7-17.81,39.7-39.71s-17.81-39.7-39.7-39.7C422.79,194.62,407.07,207.81,403,225.41z
		 M441.61,212.44c12.07,0,21.88,9.82,21.88,21.88c0,12.07-9.82,21.89-21.88,21.89c-12.07,0-21.89-9.82-21.89-21.89
		C419.73,222.26,429.55,212.44,441.61,212.44z"/>
	<path class="st0" d="M164.72,379.92c0-45.35,36.89-82.25,82.25-82.25c21.03,0,40.19,7.84,54.8,20.85l12.65-12.65
		c-9.24-8.36-20.08-15-31.98-19.5c16.64-11.36,27.59-30.47,27.59-52.09c0-34.76-28.28-63.04-63.04-63.04
		c-34.76,0-63.04,28.28-63.04,63.04c0,21.65,10.98,40.78,27.65,52.13c-37.74,14.32-64.71,50.73-64.71,93.5v26.46
		c0,4.9,4.01,8.91,8.91,8.91H267.2v-17.82H164.72V379.92z M201.78,234.28c0-24.93,20.28-45.22,45.22-45.22s45.22,20.29,45.22,45.22
		c0,24.94-20.29,45.22-45.22,45.22S201.78,259.22,201.78,234.28z"/>
	<path class="st0" d="M491.66,377.27l-21.21-3.12l-1.25-2.94l12.83-17.2c2.67-3.56,2.31-8.46-0.8-11.58l-26.64-26.65
		c-3.12-3.12-8.02-3.47-11.58-0.8l-17.2,12.83l-2.94-1.25l-3.12-21.21c-0.62-4.36-4.36-7.66-8.82-7.66h-37.61
		c-4.36,0-8.11,3.3-8.82,7.66l-3.03,21.21l-2.94,1.25l-17.2-12.83c-3.56-2.67-8.55-2.31-11.67,0.8l-26.55,26.56
		c-3.12,3.21-3.48,8.11-0.8,11.67l12.74,17.2l-1.16,2.94l-21.21,3.12c-4.46,0.62-7.66,4.36-7.66,8.82v37.51
		c0,4.46,3.3,8.2,7.66,8.82l21.21,3.12l1.25,2.94l-12.83,17.2c-2.67,3.56-2.32,8.47,0.8,11.58l26.55,26.65
		c3.21,3.12,8.11,3.48,11.67,0.8l17.2-12.83l2.94,1.25l3.03,21.21c0.71,4.37,4.46,7.66,8.82,7.66h37.61c4.46,0,8.2-3.29,8.82-7.66
		l3.12-21.21l2.94-1.25l17.2,12.83c3.57,2.68,8.46,2.32,11.58-0.8l26.64-26.65c3.12-3.12,3.47-8.02,0.8-11.58l-12.83-17.2l1.16-2.94
		l21.3-3.12c4.37-0.63,7.66-4.37,7.66-8.82v-37.51C499.32,381.64,496.03,377.89,491.66,377.27z M481.5,415.94l-18.71,2.67
		c-3.12,0.45-5.7,2.5-6.95,5.44l-5.08,12.3c-1.16,2.85-0.8,6.15,1.16,8.73l11.23,15.06l-15.68,15.68L432.4,464.6
		c-2.5-1.87-5.88-2.31-8.73-1.07l-12.3,5.08c-2.94,1.24-4.99,3.83-5.43,6.95l-2.67,18.62h-22.19l-2.67-18.62
		c-0.45-3.12-2.5-5.7-5.44-6.95l-12.3-5.08c-2.94-1.24-6.24-0.8-8.73,1.07l-15.06,11.23l-15.68-15.68l11.23-15.06
		c1.87-2.49,2.32-5.79,1.07-8.73l-5.08-12.3c-1.25-2.94-3.83-4.99-6.95-5.44l-18.62-2.67v-22.19l18.62-2.67
		c3.12-0.44,5.7-2.5,6.95-5.43l5.08-12.3c1.25-2.94,0.8-6.23-1.07-8.73l-11.23-15.06l15.68-15.68l15.06,11.23
		c2.5,1.87,5.79,2.32,8.73,1.07l12.3-5.08c2.85-1.25,4.99-3.83,5.44-6.95l2.67-18.62h22.19l2.67,18.62c0.44,3.12,2.5,5.7,5.43,6.95
		l12.3,5.08c2.94,1.25,6.24,0.8,8.73-1.07l15.06-11.23l15.68,15.68l-11.23,15.06c-1.87,2.49-2.32,5.79-1.07,8.73l5.08,12.3
		c1.16,2.94,3.83,4.99,6.95,5.43l18.62,2.67V415.94z"/>
	<path class="st1" d="M455.84,424.05c1.25-2.94,3.83-4.99,6.95-5.44l18.71-2.67v-22.19l-18.62-2.67c-3.12-0.44-5.79-2.5-6.95-5.43
		l-5.08-12.3c-1.25-2.94-0.8-6.23,1.07-8.73l11.23-15.06l-15.68-15.68L432.4,345.1c-2.5,1.87-5.79,2.32-8.73,1.07l-12.3-5.08
		c-2.94-1.25-4.99-3.83-5.43-6.95l-2.67-18.62h-22.19l-2.67,18.62c-0.45,3.12-2.58,5.7-5.44,6.95l-12.3,5.08
		c-2.94,1.25-6.24,0.8-8.73-1.07l-15.06-11.23l-15.68,15.68l11.23,15.06c1.87,2.49,2.32,5.79,1.07,8.73l-5.08,12.3
		c-1.25,2.94-3.83,4.99-6.95,5.43l-18.62,2.67v22.19l18.62,2.67c3.12,0.45,5.7,2.5,6.95,5.44l5.08,12.3
		c1.25,2.94,0.8,6.24-1.07,8.73l-11.23,15.06l15.68,15.68l15.06-11.23c2.5-1.87,5.79-2.31,8.73-1.07l12.3,5.08
		c2.94,1.24,4.99,3.83,5.44,6.95l2.67,18.62h22.19l2.67-18.62c0.44-3.12,2.5-5.7,5.43-6.95l12.3-5.08c2.85-1.24,6.24-0.8,8.73,1.07
		l15.06,11.23l15.68-15.68l-11.23-15.06c-1.96-2.58-2.32-5.88-1.16-8.73L455.84,424.05z M392.13,449.09
		c-24.33,0-44.2-19.87-44.2-44.28c0-24.33,19.87-44.2,44.2-44.2c24.42,0,44.29,19.87,44.29,44.2
		C436.41,429.22,416.54,449.09,392.13,449.09z"/>
	<path class="st0" d="M392.13,360.61c-24.33,0-44.2,19.87-44.2,44.2c0,24.42,19.87,44.28,44.2,44.28
		c24.42,0,44.29-19.87,44.29-44.28C436.41,380.48,416.54,360.61,392.13,360.61z M392.13,431.27c-14.53,0-26.38-11.85-26.38-26.46
		c0-14.52,11.85-26.38,26.38-26.38c14.61,0,26.46,11.85,26.46,26.38C418.59,419.42,406.74,431.27,392.13,431.27z"/>
</g>
</svg>
